<svg width="420" height="370" viewBox="0 0 420 370" fill="none" xmlns="http://www.w3.org/2000/svg">
<g filter="url(#filter0_d_497_8132)">
<rect x="6" y="4" width="408" height="358" rx="18" fill="#202027" shape-rendering="crispEdges"/>
<rect x="6.5" y="4.5" width="407" height="357" rx="17.5" stroke="url(#paint0_linear_497_8132)" shape-rendering="crispEdges"/>
<path d="M18 28C18 21.3726 23.3726 16 30 16H131.333C137.961 16 143.333 21.3726 143.333 28V44C143.333 50.6274 137.961 56 131.333 56H30C23.3726 56 18 50.6274 18 44V28Z" fill="#FD82FF" fill-opacity="0.1"/>
<path d="M54.9167 28H48.9167C47.3997 28 46.1667 29.233 46.1667 30.75V40.25C46.1667 40.309 46.1807 40.364 46.1837 40.422L52.1057 34.5H49.9057C49.4917 34.5 49.1557 34.164 49.1557 33.75C49.1557 33.336 49.4917 33 49.9057 33H53.9157C54.3297 33 54.6657 33.336 54.6657 33.75V37.76C54.6657 38.174 54.3297 38.51 53.9157 38.51C53.5017 38.51 53.1657 38.174 53.1657 37.76V35.56L46.7737 41.953C47.2777 42.586 48.0457 43 48.9157 43H54.9157C56.4327 43 57.6657 41.767 57.6657 40.25V30.75C57.6657 29.233 56.4327 28 54.9157 28H54.9167Z" fill="#FFABFE"/>
<path d="M46.1838 40.422L43.8858 42.72C43.5928 43.013 43.5928 43.488 43.8858 43.781C44.0318 43.927 44.2238 44.001 44.4158 44.001C44.6078 44.001 44.7998 43.928 44.9458 43.781L46.7728 41.954C46.4328 41.527 46.2188 41.001 46.1828 40.423L46.1838 40.422Z" fill="#FFABFE"/>
<path d="M69.8655 41V31.2H73.0995C74.2662 31.2 75.2182 31.4053 75.9555 31.816C76.7022 32.2173 77.2528 32.7867 77.6075 33.524C77.9622 34.2613 78.1395 35.1247 78.1395 36.114C78.1395 37.1407 77.9482 38.0227 77.5655 38.76C77.1922 39.488 76.6322 40.0433 75.8855 40.426C75.1388 40.8087 74.2102 41 73.0995 41H69.8655ZM71.4615 39.642H73.0435C73.9022 39.642 74.5835 39.502 75.0875 39.222C75.6008 38.942 75.9648 38.536 76.1795 38.004C76.3942 37.472 76.5015 36.842 76.5015 36.114C76.5015 34.8913 76.2215 33.9907 75.6615 33.412C75.1015 32.8333 74.2288 32.544 73.0435 32.544H71.4615V39.642ZM82.7339 41.168C82.0339 41.168 81.4226 41.014 80.8999 40.706C80.3772 40.3887 79.9666 39.9593 79.6679 39.418C79.3786 38.8673 79.2339 38.2373 79.2339 37.528C79.2339 36.7907 79.3786 36.1513 79.6679 35.61C79.9666 35.0687 80.3772 34.6487 80.8999 34.35C81.4319 34.042 82.0479 33.888 82.7479 33.888C83.4292 33.888 84.0219 34.0373 84.5259 34.336C85.0299 34.6253 85.4266 35.0267 85.7159 35.54C86.0052 36.0533 86.1499 36.6367 86.1499 37.29C86.1499 37.4207 86.1452 37.5373 86.1359 37.64C86.1359 37.7427 86.1266 37.8547 86.1079 37.976H80.8299C80.8579 38.34 80.9512 38.6667 81.1099 38.956C81.2686 39.236 81.4832 39.4553 81.7539 39.614C82.0339 39.7727 82.3512 39.852 82.7059 39.852C83.0886 39.852 83.4106 39.768 83.6719 39.6C83.9426 39.432 84.1526 39.1893 84.3019 38.872H85.9679C85.8372 39.292 85.6272 39.6747 85.3379 40.02C85.0579 40.3653 84.6986 40.6453 84.2599 40.86C83.8306 41.0653 83.3219 41.168 82.7339 41.168ZM80.8439 36.87H84.5259C84.5166 36.3567 84.3346 35.9507 83.9799 35.652C83.6252 35.3533 83.2006 35.204 82.7059 35.204C82.2579 35.204 81.8519 35.3393 81.4879 35.61C81.1332 35.8807 80.9186 36.3007 80.8439 36.87ZM87.2925 44.08V34.056H88.8325L88.8745 35.078C89.1265 34.7233 89.4579 34.4387 89.8685 34.224C90.2792 34 90.7505 33.888 91.2825 33.888C91.9639 33.888 92.5472 34.0513 93.0325 34.378C93.5272 34.6953 93.9052 35.1293 94.1665 35.68C94.4372 36.2307 94.5725 36.842 94.5725 37.514C94.5725 38.186 94.4372 38.802 94.1665 39.362C93.8959 39.9127 93.5132 40.3513 93.0185 40.678C92.5332 41.0047 91.9499 41.168 91.2685 41.168C90.6899 41.168 90.1952 41.0513 89.7845 40.818C89.3832 40.5753 89.0799 40.2953 88.8745 39.978V44.08H87.2925ZM90.9185 39.782C91.3199 39.782 91.6745 39.684 91.9825 39.488C92.2905 39.2827 92.5285 39.0073 92.6965 38.662C92.8739 38.3167 92.9625 37.934 92.9625 37.514C92.9625 37.0567 92.8692 36.66 92.6825 36.324C92.5052 35.988 92.2625 35.7313 91.9545 35.554C91.6465 35.3673 91.3012 35.274 90.9185 35.274C90.5265 35.274 90.1765 35.372 89.8685 35.568C89.5605 35.7547 89.3179 36.0207 89.1405 36.366C88.9632 36.702 88.8745 37.0893 88.8745 37.528C88.8745 37.948 88.9585 38.3307 89.1265 38.676C89.3039 39.012 89.5419 39.2827 89.8405 39.488C90.1485 39.684 90.5079 39.782 90.9185 39.782ZM99.1421 41.168C98.4608 41.168 97.8494 41.0187 97.3081 40.72C96.7668 40.4213 96.3374 40.0013 96.0201 39.46C95.7121 38.9093 95.5581 38.2653 95.5581 37.528C95.5581 36.772 95.7214 36.1233 96.0481 35.582C96.3748 35.0407 96.8134 34.6253 97.3641 34.336C97.9148 34.0373 98.5261 33.888 99.1981 33.888C99.8794 33.888 100.491 34.0373 101.032 34.336C101.583 34.6253 102.017 35.0407 102.334 35.582C102.661 36.1233 102.824 36.772 102.824 37.528C102.824 38.228 102.665 38.8533 102.348 39.404C102.04 39.9547 101.606 40.3887 101.046 40.706C100.495 41.014 99.8608 41.168 99.1421 41.168ZM99.1561 39.796C99.5574 39.796 99.9074 39.698 100.206 39.502C100.514 39.2967 100.757 39.0213 100.934 38.676C101.111 38.3307 101.2 37.9387 101.2 37.5C101.2 37.0427 101.111 36.646 100.934 36.31C100.757 35.974 100.514 35.7173 100.206 35.54C99.9074 35.3533 99.5621 35.26 99.1701 35.26C98.7594 35.26 98.4001 35.358 98.0921 35.554C97.7934 35.75 97.5648 36.0207 97.4061 36.366C97.2474 36.702 97.1681 37.0893 97.1681 37.528C97.1681 38.004 97.2568 38.4147 97.4341 38.76C97.6208 39.096 97.8634 39.3527 98.1621 39.53C98.4701 39.7073 98.8014 39.796 99.1561 39.796ZM106.84 41.168C106.308 41.168 105.814 41.0747 105.356 40.888C104.908 40.692 104.54 40.4167 104.25 40.062C103.97 39.7073 103.812 39.292 103.774 38.816H105.37C105.426 39.1427 105.585 39.4087 105.846 39.614C106.117 39.81 106.444 39.908 106.826 39.908C107.172 39.908 107.456 39.8333 107.68 39.684C107.914 39.5347 108.03 39.3293 108.03 39.068C108.03 38.844 107.951 38.6713 107.792 38.55C107.634 38.4193 107.438 38.3213 107.204 38.256C106.971 38.1813 106.728 38.116 106.476 38.06C106.038 37.9573 105.627 37.8313 105.244 37.682C104.871 37.5327 104.568 37.3227 104.334 37.052C104.101 36.7813 103.984 36.4267 103.984 35.988C103.984 35.5493 104.106 35.176 104.348 34.868C104.591 34.5507 104.913 34.308 105.314 34.14C105.725 33.972 106.182 33.888 106.686 33.888C107.452 33.888 108.086 34.0793 108.59 34.462C109.104 34.8447 109.388 35.4047 109.444 36.142H107.932C107.895 35.8247 107.76 35.582 107.526 35.414C107.302 35.246 107.008 35.162 106.644 35.162C106.327 35.162 106.061 35.2227 105.846 35.344C105.641 35.4653 105.538 35.6613 105.538 35.932C105.538 36.1187 105.613 36.2727 105.762 36.394C105.921 36.5153 106.117 36.618 106.35 36.702C106.593 36.7767 106.831 36.842 107.064 36.898C107.54 37.01 107.965 37.1407 108.338 37.29C108.712 37.4393 109.006 37.6493 109.22 37.92C109.444 38.1907 109.561 38.5593 109.57 39.026C109.57 39.474 109.449 39.8567 109.206 40.174C108.964 40.4913 108.637 40.7387 108.226 40.916C107.816 41.084 107.354 41.168 106.84 41.168ZM111.704 32.95C111.415 32.95 111.167 32.8473 110.962 32.642C110.757 32.4367 110.654 32.1893 110.654 31.9C110.654 31.6107 110.757 31.368 110.962 31.172C111.167 30.9667 111.415 30.864 111.704 30.864C111.993 30.864 112.241 30.9667 112.446 31.172C112.651 31.368 112.754 31.6107 112.754 31.9C112.754 32.1893 112.651 32.4367 112.446 32.642C112.241 32.8473 111.993 32.95 111.704 32.95ZM110.906 41V34.056H112.502V41H110.906ZM116.792 41C116.083 41 115.541 40.8273 115.168 40.482C114.795 40.1367 114.608 39.586 114.608 38.83V35.386H113.614V34.056H114.608V32.376H116.204V34.056H117.898V35.386H116.204V38.844C116.204 39.1613 116.279 39.3807 116.428 39.502C116.577 39.614 116.801 39.67 117.1 39.67H117.898V41H116.792Z" fill="#FFABFE"/>
<path d="M172.344 32.3105L178.735 32.3104M178.735 32.3104L178.735 38.611M178.735 32.3104L171.31 39.735" stroke="#8B8A9E" stroke-width="1.5" stroke-linecap="round" stroke-linejoin="round"/>
<path d="M196.126 41L192.696 31.2H194.32L197.064 39.502L198.268 35.904L196.616 31.2H198.226L199.332 34.644L200.424 31.2H202.034L200.382 35.904L201.572 39.502L204.33 31.2H205.954L202.524 41H200.648L199.332 37.136L197.988 41H196.126ZM207.616 32.95C207.327 32.95 207.08 32.8473 206.874 32.642C206.669 32.4367 206.566 32.1893 206.566 31.9C206.566 31.6107 206.669 31.368 206.874 31.172C207.08 30.9667 207.327 30.864 207.616 30.864C207.906 30.864 208.153 30.9667 208.358 31.172C208.564 31.368 208.666 31.6107 208.666 31.9C208.666 32.1893 208.564 32.4367 208.358 32.642C208.153 32.8473 207.906 32.95 207.616 32.95ZM206.818 41V34.056H208.414V41H206.818ZM212.704 41C211.995 41 211.454 40.8273 211.08 40.482C210.707 40.1367 210.52 39.586 210.52 38.83V35.386H209.526V34.056H210.52V32.376H212.116V34.056H213.81V35.386H212.116V38.844C212.116 39.1613 212.191 39.3807 212.34 39.502C212.49 39.614 212.714 39.67 213.012 39.67H213.81V41H212.704ZM215.06 41V31.2H216.642V34.994C216.876 34.63 217.198 34.3547 217.608 34.168C218.028 33.9813 218.458 33.888 218.896 33.888C219.699 33.888 220.352 34.1447 220.856 34.658C221.36 35.1713 221.612 35.9273 221.612 36.926V41H220.044V37.122C220.044 36.534 219.904 36.072 219.624 35.736C219.354 35.4 218.952 35.232 218.42 35.232C217.87 35.232 217.436 35.414 217.118 35.778C216.801 36.1327 216.642 36.618 216.642 37.234V41H215.06ZM226.028 41.168C225.338 41.168 224.745 41.0047 224.25 40.678C223.765 40.342 223.387 39.8987 223.116 39.348C222.855 38.7973 222.724 38.1813 222.724 37.5C222.724 36.828 222.855 36.2213 223.116 35.68C223.387 35.1293 223.77 34.6953 224.264 34.378C224.759 34.0513 225.347 33.888 226.028 33.888C226.514 33.888 226.966 33.9907 227.386 34.196C227.806 34.392 228.147 34.6813 228.408 35.064V31.2H230.004V41H228.45L228.408 39.95C228.184 40.3233 227.862 40.622 227.442 40.846C227.022 41.0607 226.551 41.168 226.028 41.168ZM226.378 39.782C226.798 39.782 227.158 39.684 227.456 39.488C227.755 39.292 227.988 39.026 228.156 38.69C228.324 38.3447 228.408 37.9573 228.408 37.528C228.408 37.0333 228.31 36.618 228.114 36.282C227.928 35.946 227.676 35.694 227.358 35.526C227.05 35.358 226.719 35.274 226.364 35.274C225.972 35.274 225.622 35.372 225.314 35.568C225.016 35.7547 224.778 36.016 224.6 36.352C224.432 36.6787 224.348 37.066 224.348 37.514C224.348 37.9527 224.437 38.3447 224.614 38.69C224.792 39.026 225.03 39.292 225.328 39.488C225.636 39.684 225.986 39.782 226.378 39.782ZM231.494 41V34.056H233.034L233.062 35.19C233.295 34.7793 233.608 34.462 234 34.238C234.401 34.0047 234.863 33.888 235.386 33.888V35.554H234.952C234.317 35.554 233.846 35.7127 233.538 36.03C233.23 36.3473 233.076 36.842 233.076 37.514V41H231.494ZM238.463 41.168C238.034 41.168 237.632 41.0887 237.259 40.93C236.895 40.762 236.601 40.5193 236.377 40.202C236.162 39.8847 236.055 39.5067 236.055 39.068C236.055 38.5453 236.186 38.1207 236.447 37.794C236.708 37.4673 237.063 37.2293 237.511 37.08C237.959 36.9213 238.454 36.842 238.995 36.842H240.731C240.731 36.4687 240.67 36.1653 240.549 35.932C240.428 35.6893 240.26 35.512 240.045 35.4C239.83 35.2787 239.578 35.218 239.289 35.218C238.916 35.218 238.589 35.302 238.309 35.47C238.029 35.638 237.856 35.9133 237.791 36.296H236.195C236.242 35.792 236.41 35.3627 236.699 35.008C236.998 34.644 237.376 34.3687 237.833 34.182C238.29 33.986 238.78 33.888 239.303 33.888C239.975 33.888 240.53 34.014 240.969 34.266C241.417 34.5087 241.753 34.8493 241.977 35.288C242.21 35.7267 242.327 36.2353 242.327 36.814V38.928C242.336 39.18 242.397 39.362 242.509 39.474C242.63 39.586 242.817 39.6467 243.069 39.656V41C242.677 41 242.341 40.958 242.061 40.874C241.781 40.79 241.548 40.664 241.361 40.496C241.184 40.328 241.039 40.1087 240.927 39.838C240.703 40.2113 240.372 40.5287 239.933 40.79C239.504 41.042 239.014 41.168 238.463 41.168ZM238.869 39.88C239.233 39.88 239.55 39.796 239.821 39.628C240.101 39.4507 240.32 39.2173 240.479 38.928C240.647 38.6293 240.731 38.3027 240.731 37.948V37.906H239.107C238.864 37.906 238.631 37.9387 238.407 38.004C238.183 38.0693 238.006 38.1767 237.875 38.326C237.744 38.466 237.679 38.662 237.679 38.914C237.679 39.25 237.796 39.4973 238.029 39.656C238.262 39.8053 238.542 39.88 238.869 39.88ZM245.24 41L243.182 34.056H244.778L246.094 39.39L247.536 34.056H249.244L250.658 39.376L251.974 34.056H253.514L251.47 40.986H249.79L248.362 35.848L246.934 41H245.24Z" fill="#8B8A9E"/>
<path d="M312.718 37.786L310.022 36.8874V33.13M317.211 35.9888C317.211 32.0185 313.993 28.8 310.022 28.8C306.052 28.8 302.833 32.0185 302.833 35.9888C302.833 39.9591 306.052 43.1777 310.022 43.1777C312.683 43.1777 315.006 41.732 316.249 39.5832M315.239 35.1999L317.036 36.9971L318.833 35.1999" stroke="#8B8A9E" stroke-width="1.5" stroke-linecap="round" stroke-linejoin="round"/>
<path d="M328.443 41L332.027 31.2H333.791L337.375 41H335.695L334.883 38.676H330.921L330.095 41H328.443ZM331.383 37.402H334.435L332.895 33.062L331.383 37.402ZM341.325 41.168C340.644 41.168 340.042 41.014 339.519 40.706C338.996 40.398 338.586 39.9733 338.287 39.432C337.988 38.8813 337.839 38.2467 337.839 37.528C337.839 36.8187 337.984 36.1933 338.273 35.652C338.562 35.1013 338.968 34.672 339.491 34.364C340.014 34.0467 340.625 33.888 341.325 33.888C342.165 33.888 342.87 34.1027 343.439 34.532C344.018 34.952 344.4 35.554 344.587 36.338H342.907C342.823 36.0113 342.641 35.7453 342.361 35.54C342.081 35.3347 341.731 35.232 341.311 35.232C340.891 35.232 340.546 35.3393 340.275 35.554C340.004 35.7593 339.799 36.0393 339.659 36.394C339.528 36.7393 339.463 37.1173 339.463 37.528C339.463 37.9573 339.533 38.3447 339.673 38.69C339.813 39.0353 340.018 39.3107 340.289 39.516C340.569 39.7213 340.91 39.824 341.311 39.824C341.722 39.824 342.062 39.7307 342.333 39.544C342.613 39.348 342.804 39.0727 342.907 38.718H344.587C344.475 39.222 344.265 39.6607 343.957 40.034C343.658 40.398 343.285 40.678 342.837 40.874C342.389 41.07 341.885 41.168 341.325 41.168ZM348.45 41C347.741 41 347.199 40.8273 346.826 40.482C346.453 40.1367 346.266 39.586 346.266 38.83V35.386H345.272V34.056H346.266V32.376H347.862V34.056H349.556V35.386H347.862V38.844C347.862 39.1613 347.937 39.3807 348.086 39.502C348.235 39.614 348.459 39.67 348.758 39.67H349.556V41H348.45ZM351.688 32.95C351.399 32.95 351.151 32.8473 350.946 32.642C350.741 32.4367 350.638 32.1893 350.638 31.9C350.638 31.6107 350.741 31.368 350.946 31.172C351.151 30.9667 351.399 30.864 351.688 30.864C351.977 30.864 352.225 30.9667 352.43 31.172C352.635 31.368 352.738 31.6107 352.738 31.9C352.738 32.1893 352.635 32.4367 352.43 32.642C352.225 32.8473 351.977 32.95 351.688 32.95ZM350.89 41V34.056H352.486V41H350.89ZM356.02 41L353.402 34.056H355.082L356.972 39.544L358.862 34.056H360.528L357.91 41H356.02ZM362.256 32.95C361.967 32.95 361.72 32.8473 361.514 32.642C361.309 32.4367 361.206 32.1893 361.206 31.9C361.206 31.6107 361.309 31.368 361.514 31.172C361.72 30.9667 361.967 30.864 362.256 30.864C362.546 30.864 362.793 30.9667 362.998 31.172C363.204 31.368 363.306 31.6107 363.306 31.9C363.306 32.1893 363.204 32.4367 362.998 32.642C362.793 32.8473 362.546 32.95 362.256 32.95ZM361.458 41V34.056H363.054V41H361.458ZM367.345 41C366.635 41 366.094 40.8273 365.721 40.482C365.347 40.1367 365.161 39.586 365.161 38.83V35.386H364.167V34.056H365.161V32.376H366.757V34.056H368.451V35.386H366.757V38.844C366.757 39.1613 366.831 39.3807 366.981 39.502C367.13 39.614 367.354 39.67 367.653 39.67H368.451V41H367.345ZM370.386 44.08L371.912 40.692L369.042 34.056H370.806L372.766 39.012L374.796 34.056H376.462L372.052 44.08H370.386Z" fill="#8B8A9E"/>
<path d="M30.966 95V85.2H37.14V86.446H32.45V89.204H36.51V90.436H32.45V93.754H37.14V95H30.966ZM38.6867 95V88.056H40.1147L40.1427 89.078C40.376 88.6953 40.698 88.4013 41.1087 88.196C41.5287 87.9907 41.972 87.888 42.4387 87.888C43.2507 87.888 43.9087 88.1447 44.4127 88.658C44.9167 89.162 45.1687 89.918 45.1687 90.926V95H43.6847V91.108C43.6847 90.4827 43.5447 90.002 43.2647 89.666C42.9847 89.3207 42.5647 89.148 42.0047 89.148C41.454 89.148 41.0107 89.3393 40.6747 89.722C40.3387 90.0953 40.1707 90.6133 40.1707 91.276V95H38.6867ZM49.3877 95C48.697 95 48.165 94.832 47.7917 94.496C47.4184 94.16 47.2317 93.6093 47.2317 92.844V89.302H46.1817V88.056H47.2317V86.376H48.7157V88.056H50.4797V89.302H48.7157V92.844C48.7157 93.1987 48.795 93.4367 48.9537 93.558C49.1124 93.6793 49.3597 93.74 49.6957 93.74H50.4797V95H49.3877ZM54.8539 95.168C54.1726 95.168 53.5706 95.014 53.0479 94.706C52.5253 94.398 52.1146 93.9687 51.8159 93.418C51.5266 92.8673 51.3819 92.2373 51.3819 91.528C51.3819 90.7907 51.5266 90.1513 51.8159 89.61C52.1053 89.0687 52.5113 88.6487 53.0339 88.35C53.5659 88.042 54.1773 87.888 54.8679 87.888C55.5399 87.888 56.1279 88.0373 56.6319 88.336C57.1359 88.6253 57.5279 89.022 57.8079 89.526C58.0973 90.03 58.2419 90.604 58.2419 91.248C58.2419 91.3787 58.2373 91.4907 58.2279 91.584C58.2279 91.6773 58.2186 91.7893 58.1999 91.92H52.8659C52.8939 92.312 52.9919 92.662 53.1599 92.97C53.3279 93.2687 53.5566 93.5067 53.8459 93.684C54.1353 93.852 54.4666 93.936 54.8399 93.936C55.2413 93.936 55.5819 93.8473 55.8619 93.67C56.1513 93.4833 56.3659 93.222 56.5059 92.886H58.0459C57.9246 93.306 57.7193 93.6887 57.4299 94.034C57.1499 94.3793 56.7953 94.6547 56.3659 94.86C55.9366 95.0653 55.4326 95.168 54.8539 95.168ZM52.8799 90.87H56.7299C56.7113 90.3287 56.5199 89.904 56.1559 89.596C55.7919 89.2787 55.3486 89.12 54.8259 89.12C54.3593 89.12 53.9346 89.2647 53.5519 89.554C53.1693 89.8433 52.9453 90.282 52.8799 90.87ZM59.4816 95V88.056H60.9096L60.9516 89.232C61.1849 88.812 61.5023 88.4853 61.9036 88.252C62.3143 88.0093 62.7949 87.888 63.3456 87.888V89.442H62.9396C62.2769 89.442 61.7823 89.6147 61.4556 89.96C61.1289 90.296 60.9656 90.814 60.9656 91.514V95H59.4816ZM67.4145 95L71.0125 85.2H72.6365L76.2345 95H74.6525L73.8265 92.62H69.8085L68.9685 95H67.4145ZM70.2425 91.43H73.3925L71.8105 86.964L70.2425 91.43ZM77.3644 95V88.056H78.7924L78.8344 88.952C79.0584 88.6067 79.3524 88.3453 79.7164 88.168C80.0897 87.9813 80.4957 87.888 80.9344 87.888C81.4664 87.888 81.9424 88 82.3624 88.224C82.7917 88.4387 83.1231 88.7793 83.3564 89.246C83.5991 88.8167 83.9304 88.4853 84.3504 88.252C84.7704 88.0093 85.2277 87.888 85.7224 87.888C86.2637 87.888 86.7444 88 87.1644 88.224C87.5844 88.4387 87.9111 88.77 88.1444 89.218C88.3871 89.666 88.5084 90.2307 88.5084 90.912V95H87.0384V91.108C87.0384 90.4827 86.9031 90.002 86.6324 89.666C86.3617 89.33 85.9604 89.162 85.4284 89.162C84.8964 89.162 84.4717 89.3487 84.1544 89.722C83.8371 90.0953 83.6784 90.6133 83.6784 91.276V95H82.2084V91.108C82.2084 90.4827 82.0684 90.002 81.7884 89.666C81.5084 89.33 81.1117 89.162 80.5984 89.162C80.1131 89.162 79.6977 89.3393 79.3524 89.694C79.0164 90.0393 78.8484 90.5667 78.8484 91.276V95H77.3644ZM93.2875 95.168C92.6155 95.168 92.0089 95.0233 91.4675 94.734C90.9355 94.4353 90.5109 94.0107 90.1935 93.46C89.8855 92.9093 89.7315 92.2607 89.7315 91.514C89.7315 90.7673 89.8902 90.1233 90.2075 89.582C90.5342 89.0407 90.9682 88.6253 91.5095 88.336C92.0602 88.0373 92.6715 87.888 93.3435 87.888C94.0155 87.888 94.6222 88.0327 95.1635 88.322C95.7049 88.6113 96.1389 89.0267 96.4655 89.568C96.7922 90.1093 96.9555 90.758 96.9555 91.514C96.9555 92.2233 96.7969 92.8533 96.4795 93.404C96.1715 93.9547 95.7422 94.3887 95.1915 94.706C94.6409 95.014 94.0062 95.168 93.2875 95.168ZM93.3015 93.88C93.7122 93.88 94.0762 93.7773 94.3935 93.572C94.7202 93.3667 94.9769 93.0867 95.1635 92.732C95.3502 92.368 95.4435 91.9573 95.4435 91.5C95.4435 91.0333 95.3502 90.6273 95.1635 90.282C94.9862 89.9273 94.7389 89.6567 94.4215 89.47C94.1042 89.274 93.7355 89.176 93.3155 89.176C92.8769 89.176 92.4989 89.2787 92.1815 89.484C91.8735 89.6893 91.6355 89.9693 91.4675 90.324C91.3089 90.6693 91.2295 91.066 91.2295 91.514C91.2295 92.0273 91.3229 92.4613 91.5095 92.816C91.7055 93.1707 91.9622 93.4367 92.2795 93.614C92.5969 93.7913 92.9375 93.88 93.3015 93.88ZM100.914 95.168C100.345 95.168 99.855 95.0513 99.4444 94.818C99.0337 94.5753 98.7164 94.23 98.4924 93.782C98.2684 93.3247 98.1564 92.7787 98.1564 92.144V88.056H99.6264V91.948C99.6264 92.564 99.7664 93.0447 100.046 93.39C100.336 93.7353 100.756 93.908 101.306 93.908C101.876 93.908 102.324 93.7213 102.65 93.348C102.977 92.9653 103.14 92.4427 103.14 91.78V88.056H104.624V95H103.196L103.168 93.964C102.935 94.3467 102.618 94.6453 102.216 94.86C101.824 95.0653 101.39 95.168 100.914 95.168ZM106.226 95V88.056H107.654L107.682 89.078C107.915 88.6953 108.237 88.4013 108.648 88.196C109.068 87.9907 109.511 87.888 109.978 87.888C110.79 87.888 111.448 88.1447 111.952 88.658C112.456 89.162 112.708 89.918 112.708 90.926V95H111.224V91.108C111.224 90.4827 111.084 90.002 110.804 89.666C110.524 89.3207 110.104 89.148 109.544 89.148C108.993 89.148 108.55 89.3393 108.214 89.722C107.878 90.0953 107.71 90.6133 107.71 91.276V95H106.226ZM116.927 95C116.236 95 115.704 94.832 115.331 94.496C114.957 94.16 114.771 93.6093 114.771 92.844V89.302H113.721V88.056H114.771V86.376H116.255V88.056H118.019V89.302H116.255V92.844C116.255 93.1987 116.334 93.4367 116.493 93.558C116.651 93.6793 116.899 93.74 117.235 93.74H118.019V95H116.927Z" fill="#C7C5D1"/>
<path d="M22 116C22 109.373 27.3726 104 34 104H386C392.627 104 398 109.373 398 116V248C398 254.627 392.627 260 386 260H34C27.3726 260 22 254.627 22 248V116Z" fill="#0F0F12" fill-opacity="0.5"/>
<path d="M22 116C22 109.373 27.3726 104 34 104H386C392.627 104 398 109.373 398 116V176C398 182.627 392.627 188 386 188H34C27.3726 188 22 182.627 22 176V116Z" fill="#16161B"/>
<path d="M34 104.5H386C392.351 104.5 397.5 109.649 397.5 116V176C397.5 182.351 392.351 187.5 386 187.5H34C27.6487 187.5 22.5 182.351 22.5 176V116C22.5 109.649 27.6487 104.5 34 104.5Z" stroke="#8B8A9E" stroke-opacity="0.2"/>
<g filter="url(#filter1_i_497_8132)">
<path d="M28 118C28 113.582 31.5817 110 36 110H155C159.418 110 163 113.582 163 118V174C163 178.418 159.418 182 155 182H36C31.5817 182 28 178.418 28 174V118Z" fill="#202027"/>
<path d="M36 110.5H155C159.142 110.5 162.5 113.858 162.5 118V174C162.5 178.142 159.142 181.5 155 181.5H36C31.8579 181.5 28.5 178.142 28.5 174V118C28.5 113.858 31.8579 110.5 36 110.5Z" stroke="#8B8A9E" stroke-opacity="0.15"/>
<path d="M57.7306 148.177C56.5284 152.999 51.6446 155.933 46.822 154.731C42.0014 153.528 39.0668 148.645 40.2696 143.824C41.4712 139.002 46.3551 136.067 51.1762 137.269C55.9985 138.471 58.9328 143.356 57.7306 148.177Z" fill="#F7931A"/>
<path d="M52.968 144.718C53.1472 143.52 52.2353 142.876 50.9883 142.447L51.3928 140.825L50.4053 140.578L50.0115 142.158C49.7518 142.093 49.4852 142.032 49.2202 141.972L49.6168 140.382L48.6298 140.136L48.2251 141.757C48.0102 141.708 47.7992 141.66 47.5944 141.609L47.5955 141.604L46.2336 141.264L45.9709 142.319C45.9709 142.319 46.7036 142.487 46.6881 142.497C47.0881 142.597 47.1604 142.862 47.1483 143.071L46.6876 144.919C46.7151 144.927 46.7509 144.937 46.7902 144.952C46.7573 144.944 46.7222 144.935 46.6859 144.927L46.0401 147.515C45.9911 147.637 45.8671 147.819 45.5875 147.75C45.5973 147.764 44.8697 147.571 44.8697 147.571L44.3794 148.701L45.6646 149.021C45.9037 149.081 46.138 149.144 46.3686 149.203L45.9599 150.844L46.9464 151.09L47.3511 149.467C47.6206 149.54 47.8822 149.607 48.1381 149.671L47.7348 151.287L48.7224 151.533L49.1311 149.895C50.8151 150.214 52.0814 150.085 52.6144 148.562C53.0439 147.336 52.593 146.629 51.707 146.167C52.3523 146.019 52.8383 145.594 52.968 144.718ZM50.7116 147.881C50.4064 149.108 48.3415 148.445 47.6721 148.278L48.2144 146.105C48.8838 146.272 51.0305 146.602 50.7116 147.881ZM51.017 144.7C50.7386 145.815 49.0199 145.249 48.4625 145.11L48.9541 143.138C49.5116 143.277 51.307 143.536 51.017 144.7Z" fill="white"/>
<path d="M67.072 151V139.8H71.184C72.3147 139.8 73.184 140.056 73.792 140.568C74.4107 141.08 74.72 141.752 74.72 142.584C74.72 143.203 74.5653 143.715 74.256 144.12C73.9467 144.525 73.5627 144.813 73.104 144.984C73.5093 145.133 73.872 145.347 74.192 145.624C74.512 145.901 74.7627 146.227 74.944 146.6C75.136 146.973 75.232 147.384 75.232 147.832C75.232 148.429 75.0933 148.968 74.816 149.448C74.5387 149.928 74.128 150.307 73.584 150.584C73.0507 150.861 72.384 151 71.584 151H67.072ZM68.896 149.464H71.328C72 149.464 72.512 149.315 72.864 149.016C73.216 148.717 73.392 148.269 73.392 147.672C73.392 147.075 73.2053 146.627 72.832 146.328C72.4587 146.029 71.9467 145.88 71.296 145.88H68.896V149.464ZM68.896 144.36H71.04C71.6587 144.36 72.1173 144.232 72.416 143.976C72.7147 143.709 72.864 143.331 72.864 142.84C72.864 142.36 72.7147 141.992 72.416 141.736C72.1173 141.469 71.648 141.336 71.008 141.336H68.896V144.36ZM79.3679 151V141.336H76.0719V139.8H84.4719V141.336H81.1759V151H79.3679ZM90.5179 151.192C89.3765 151.192 88.4005 150.941 87.5899 150.44C86.7792 149.939 86.1605 149.251 85.7339 148.376C85.3179 147.501 85.1099 146.515 85.1099 145.416C85.1099 144.307 85.3179 143.315 85.7339 142.44C86.1499 141.565 86.7579 140.877 87.5579 140.376C88.3685 139.864 89.3552 139.608 90.5179 139.608C91.8405 139.608 92.9232 139.933 93.7659 140.584C94.6085 141.235 95.1365 142.141 95.3499 143.304H93.3499C93.2005 142.675 92.8859 142.173 92.4059 141.8C91.9259 141.427 91.2912 141.24 90.5019 141.24C89.7445 141.24 89.1045 141.416 88.5819 141.768C88.0592 142.12 87.6592 142.605 87.3819 143.224C87.1045 143.843 86.9659 144.573 86.9659 145.416C86.9659 146.248 87.1045 146.979 87.3819 147.608C87.6592 148.227 88.0592 148.712 88.5819 149.064C89.1152 149.405 89.7552 149.576 90.5019 149.576C91.2912 149.576 91.9259 149.4 92.4059 149.048C92.8859 148.685 93.2005 148.2 93.3499 147.592H95.3499C95.1365 148.723 94.6085 149.608 93.7659 150.248C92.9232 150.877 91.8405 151.192 90.5179 151.192Z" fill="#F1F0F3"/>
</g>
<g filter="url(#filter2_ii_497_8132)">
<rect width="219" height="36" transform="translate(163 112)" fill="#16161B"/>
<path d="M184.88 137.24C183.6 137.24 182.573 136.92 181.8 136.28C181.027 135.64 180.467 134.773 180.12 133.68C179.773 132.587 179.6 131.36 179.6 130C179.6 128.64 179.773 127.413 180.12 126.32C180.467 125.227 181.027 124.36 181.8 123.72C182.573 123.08 183.6 122.76 184.88 122.76C186.16 122.76 187.18 123.073 187.94 123.7C188.713 124.327 189.273 125.187 189.62 126.28C189.967 127.373 190.14 128.613 190.14 130C190.14 131.387 189.967 132.627 189.62 133.72C189.273 134.813 188.713 135.673 187.94 136.3C187.18 136.927 186.16 137.24 184.88 137.24ZM184.88 135.22C185.907 135.22 186.653 134.753 187.12 133.82C187.6 132.887 187.84 131.613 187.84 130C187.84 128.387 187.6 127.113 187.12 126.18C186.653 125.247 185.907 124.78 184.88 124.78C183.867 124.78 183.12 125.247 182.64 126.18C182.16 127.113 181.92 128.387 181.92 130C181.92 131.613 182.16 132.887 182.64 133.82C183.12 134.753 183.867 135.22 184.88 135.22Z" fill="#8B8A9E"/>
</g>
<path d="M184.39 165.654C184.129 165.654 183.891 165.607 183.676 165.514C183.471 165.421 183.275 165.313 183.088 165.192C182.901 165.061 182.715 164.949 182.528 164.856C182.351 164.763 182.15 164.716 181.926 164.716C181.674 164.716 181.469 164.8 181.31 164.968C181.151 165.127 181.053 165.351 181.016 165.64H179.91C180.041 164.865 180.288 164.301 180.652 163.946C181.016 163.582 181.469 163.4 182.01 163.4C182.281 163.4 182.523 163.447 182.738 163.54C182.953 163.633 183.149 163.741 183.326 163.862C183.513 163.983 183.699 164.091 183.886 164.184C184.073 164.277 184.273 164.324 184.488 164.324C184.731 164.324 184.931 164.245 185.09 164.086C185.258 163.918 185.361 163.689 185.398 163.4H186.504C186.383 164.175 186.14 164.744 185.776 165.108C185.412 165.472 184.95 165.654 184.39 165.654ZM190.965 170.204V169.126C190.395 169.051 189.887 168.888 189.439 168.636C188.991 168.384 188.636 168.039 188.375 167.6C188.123 167.161 187.992 166.643 187.983 166.046H189.537C189.546 166.503 189.677 166.891 189.929 167.208C190.19 167.516 190.535 167.726 190.965 167.838V164.52L190.713 164.436C190.153 164.24 189.691 164.021 189.327 163.778C188.972 163.526 188.706 163.237 188.529 162.91C188.351 162.574 188.263 162.196 188.263 161.776C188.263 161.235 188.379 160.773 188.613 160.39C188.846 159.998 189.168 159.69 189.579 159.466C189.989 159.242 190.451 159.107 190.965 159.06V157.926H191.931V159.06C192.444 159.107 192.906 159.247 193.317 159.48C193.727 159.704 194.054 160.012 194.297 160.404C194.549 160.796 194.679 161.263 194.689 161.804H193.107C193.107 161.459 192.999 161.155 192.785 160.894C192.579 160.623 192.295 160.441 191.931 160.348V163.344L192.211 163.442C192.556 163.554 192.892 163.685 193.219 163.834C193.555 163.983 193.853 164.17 194.115 164.394C194.376 164.609 194.581 164.875 194.731 165.192C194.889 165.509 194.969 165.897 194.969 166.354C194.969 166.914 194.833 167.395 194.563 167.796C194.292 168.197 193.928 168.515 193.471 168.748C193.013 168.972 192.5 169.107 191.931 169.154V170.204H190.965ZM191.931 167.894C192.369 167.847 192.724 167.698 192.995 167.446C193.275 167.194 193.415 166.863 193.415 166.452C193.415 166.172 193.363 165.939 193.261 165.752C193.167 165.565 193.013 165.402 192.799 165.262C192.584 165.122 192.295 164.987 191.931 164.856V167.894ZM190.965 162.966V160.334C190.629 160.39 190.353 160.53 190.139 160.754C189.924 160.978 189.817 161.277 189.817 161.65C189.817 161.977 189.905 162.238 190.083 162.434C190.269 162.621 190.563 162.798 190.965 162.966ZM199.714 169.168C198.818 169.168 198.1 168.944 197.558 168.496C197.017 168.048 196.625 167.441 196.382 166.676C196.14 165.911 196.018 165.052 196.018 164.1C196.018 163.148 196.14 162.289 196.382 161.524C196.625 160.759 197.017 160.152 197.558 159.704C198.1 159.256 198.818 159.032 199.714 159.032C200.61 159.032 201.324 159.251 201.856 159.69C202.398 160.129 202.79 160.731 203.032 161.496C203.275 162.261 203.396 163.129 203.396 164.1C203.396 165.071 203.275 165.939 203.032 166.704C202.79 167.469 202.398 168.071 201.856 168.51C201.324 168.949 200.61 169.168 199.714 169.168ZM199.714 167.838C200.47 167.838 201.021 167.507 201.366 166.844C201.712 166.172 201.884 165.257 201.884 164.1C201.884 162.943 201.707 162.028 201.352 161.356C201.007 160.684 200.461 160.348 199.714 160.348C198.968 160.348 198.417 160.684 198.062 161.356C197.708 162.028 197.53 162.943 197.53 164.1C197.53 165.257 197.708 166.172 198.062 166.844C198.417 167.507 198.968 167.838 199.714 167.838ZM205.312 169.112C205.032 169.112 204.794 169.019 204.598 168.832C204.411 168.636 204.318 168.403 204.318 168.132C204.318 167.861 204.411 167.633 204.598 167.446C204.794 167.25 205.032 167.152 205.312 167.152C205.583 167.152 205.811 167.25 205.998 167.446C206.194 167.633 206.292 167.861 206.292 168.132C206.292 168.403 206.194 168.636 205.998 168.832C205.811 169.019 205.583 169.112 205.312 169.112ZM210.925 169.168C210.029 169.168 209.311 168.944 208.769 168.496C208.228 168.048 207.836 167.441 207.593 166.676C207.351 165.911 207.229 165.052 207.229 164.1C207.229 163.148 207.351 162.289 207.593 161.524C207.836 160.759 208.228 160.152 208.769 159.704C209.311 159.256 210.029 159.032 210.925 159.032C211.821 159.032 212.535 159.251 213.067 159.69C213.609 160.129 214.001 160.731 214.243 161.496C214.486 162.261 214.607 163.129 214.607 164.1C214.607 165.071 214.486 165.939 214.243 166.704C214.001 167.469 213.609 168.071 213.067 168.51C212.535 168.949 211.821 169.168 210.925 169.168ZM210.925 167.838C211.681 167.838 212.232 167.507 212.577 166.844C212.923 166.172 213.095 165.257 213.095 164.1C213.095 162.943 212.918 162.028 212.563 161.356C212.218 160.684 211.672 160.348 210.925 160.348C210.179 160.348 209.628 160.684 209.273 161.356C208.919 162.028 208.741 162.943 208.741 164.1C208.741 165.257 208.919 166.172 209.273 166.844C209.628 167.507 210.179 167.838 210.925 167.838ZM223.146 169.168C222.268 169.168 221.554 168.991 221.004 168.636C220.453 168.281 220.047 167.81 219.786 167.222C219.534 166.634 219.408 165.999 219.408 165.318V159.2H220.892V165.332C220.892 166.191 221.097 166.821 221.508 167.222C221.928 167.623 222.483 167.824 223.174 167.824C223.864 167.824 224.415 167.623 224.826 167.222C225.236 166.821 225.442 166.191 225.442 165.332V159.2H226.926V165.318C226.926 166.046 226.814 166.657 226.59 167.152C226.366 167.647 226.067 168.043 225.694 168.342C225.32 168.631 224.91 168.841 224.462 168.972C224.023 169.103 223.584 169.168 223.146 169.168ZM232.022 169.168C231.35 169.168 230.739 169.051 230.188 168.818C229.647 168.575 229.218 168.225 228.9 167.768C228.583 167.301 228.42 166.727 228.41 166.046H229.964C229.974 166.606 230.165 167.059 230.538 167.404C230.912 167.74 231.406 167.908 232.022 167.908C232.554 167.908 232.988 167.782 233.324 167.53C233.67 167.269 233.842 166.909 233.842 166.452C233.842 166.172 233.796 165.943 233.702 165.766C233.609 165.579 233.455 165.416 233.24 165.276C233.035 165.136 232.76 165.005 232.414 164.884C232.069 164.753 231.644 164.604 231.14 164.436C230.58 164.24 230.118 164.021 229.754 163.778C229.4 163.526 229.134 163.237 228.956 162.91C228.779 162.574 228.69 162.196 228.69 161.776C228.69 161.179 228.83 160.679 229.11 160.278C229.4 159.867 229.787 159.559 230.272 159.354C230.758 159.139 231.294 159.032 231.882 159.032C232.48 159.032 233.016 159.139 233.492 159.354C233.978 159.559 234.365 159.872 234.654 160.292C234.953 160.703 235.107 161.207 235.116 161.804H233.534C233.534 161.375 233.376 161.015 233.058 160.726C232.75 160.437 232.34 160.292 231.826 160.292C231.388 160.283 231.014 160.395 230.706 160.628C230.398 160.861 230.244 161.202 230.244 161.65C230.244 161.967 230.333 162.224 230.51 162.42C230.688 162.616 230.954 162.789 231.308 162.938C231.663 163.087 232.106 163.255 232.638 163.442C232.984 163.554 233.32 163.685 233.646 163.834C233.982 163.983 234.281 164.17 234.542 164.394C234.804 164.609 235.009 164.875 235.158 165.192C235.317 165.509 235.396 165.897 235.396 166.354C235.396 166.951 235.242 167.46 234.934 167.88C234.636 168.291 234.23 168.608 233.716 168.832C233.212 169.056 232.648 169.168 232.022 169.168ZM236.964 169V159.2H240.142C241.309 159.2 242.261 159.401 242.998 159.802C243.745 160.203 244.295 160.773 244.65 161.51C245.005 162.247 245.182 163.115 245.182 164.114C245.182 165.141 244.995 166.018 244.622 166.746C244.249 167.474 243.689 168.034 242.942 168.426C242.195 168.809 241.262 169 240.142 169H236.964ZM238.448 167.74H240.086C240.973 167.74 241.673 167.595 242.186 167.306C242.709 167.017 243.082 166.601 243.306 166.06C243.539 165.519 243.656 164.87 243.656 164.114C243.656 162.863 243.367 161.939 242.788 161.342C242.209 160.745 241.309 160.446 240.086 160.446H238.448V167.74Z" fill="#8B8A9E"/>
<g filter="url(#filter3_f_497_8132)">
<path d="M38.966 215V205.2H45.14V206.446H40.45V209.204H44.51V210.436H40.45V213.754H45.14V215H38.966ZM49.4447 215.168C48.9033 215.168 48.4087 215.075 47.9607 214.888C47.5127 214.692 47.1487 214.417 46.8687 214.062C46.5887 213.707 46.4253 213.292 46.3787 212.816H47.8767C47.942 213.152 48.1147 213.427 48.3947 213.642C48.6747 213.857 49.0247 213.964 49.4447 213.964C49.818 213.964 50.1213 213.885 50.3547 213.726C50.588 213.558 50.7047 213.339 50.7047 213.068C50.7047 212.835 50.6253 212.653 50.4667 212.522C50.3173 212.391 50.1213 212.289 49.8787 212.214C49.6453 212.139 49.3887 212.074 49.1087 212.018C48.6793 211.915 48.2733 211.789 47.8907 211.64C47.5173 211.491 47.214 211.285 46.9807 211.024C46.7473 210.763 46.6307 210.413 46.6307 209.974C46.6307 209.545 46.7427 209.176 46.9667 208.868C47.2 208.551 47.5173 208.308 47.9187 208.14C48.32 207.972 48.7727 207.888 49.2767 207.888C50.0327 207.888 50.6627 208.079 51.1667 208.462C51.6707 208.835 51.9507 209.386 52.0067 210.114H50.5787C50.5413 209.787 50.4013 209.535 50.1587 209.358C49.9253 209.181 49.622 209.092 49.2487 209.092C48.9033 209.092 48.6233 209.162 48.4087 209.302C48.194 209.433 48.0867 209.633 48.0867 209.904C48.0867 210.091 48.1613 210.249 48.3107 210.38C48.46 210.501 48.6513 210.604 48.8847 210.688C49.1273 210.763 49.3793 210.833 49.6407 210.898C50.1167 211.001 50.5413 211.127 50.9147 211.276C51.288 211.425 51.5867 211.635 51.8107 211.906C52.0347 212.177 52.1513 212.55 52.1607 213.026C52.1607 213.455 52.0393 213.833 51.7967 214.16C51.5633 214.477 51.2413 214.725 50.8307 214.902C50.4293 215.079 49.9673 215.168 49.4447 215.168ZM56.0752 215C55.3845 215 54.8525 214.832 54.4792 214.496C54.1059 214.16 53.9192 213.609 53.9192 212.844V209.302H52.8692V208.056H53.9192V206.376H55.4032V208.056H57.1672V209.302H55.4032V212.844C55.4032 213.199 55.4825 213.437 55.6412 213.558C55.7999 213.679 56.0472 213.74 56.3832 213.74H57.1672V215H56.0752ZM59.3392 206.838C59.0685 206.838 58.8352 206.745 58.6392 206.558C58.4525 206.362 58.3592 206.124 58.3592 205.844C58.3592 205.573 58.4525 205.345 58.6392 205.158C58.8352 204.971 59.0685 204.878 59.3392 204.878C59.6192 204.878 59.8525 204.971 60.0392 205.158C60.2352 205.345 60.3332 205.573 60.3332 205.844C60.3332 206.124 60.2352 206.362 60.0392 206.558C59.8525 206.745 59.6192 206.838 59.3392 206.838ZM58.5972 215V208.056H60.0812V215H58.5972ZM61.7668 215V208.056H63.1948L63.2368 208.952C63.4608 208.607 63.7548 208.345 64.1188 208.168C64.4921 207.981 64.8981 207.888 65.3368 207.888C65.8688 207.888 66.3448 208 66.7648 208.224C67.1941 208.439 67.5254 208.779 67.7588 209.246C68.0014 208.817 68.3328 208.485 68.7528 208.252C69.1728 208.009 69.6301 207.888 70.1248 207.888C70.6661 207.888 71.1468 208 71.5668 208.224C71.9868 208.439 72.3134 208.77 72.5468 209.218C72.7894 209.666 72.9108 210.231 72.9108 210.912V215H71.4408V211.108C71.4408 210.483 71.3054 210.002 71.0348 209.666C70.7641 209.33 70.3628 209.162 69.8308 209.162C69.2988 209.162 68.8741 209.349 68.5568 209.722C68.2394 210.095 68.0808 210.613 68.0808 211.276V215H66.6108V211.108C66.6108 210.483 66.4708 210.002 66.1908 209.666C65.9108 209.33 65.5141 209.162 65.0008 209.162C64.5154 209.162 64.1001 209.339 63.7548 209.694C63.4188 210.039 63.2508 210.567 63.2508 211.276V215H61.7668ZM76.6119 215.168C76.1639 215.168 75.7532 215.089 75.3799 214.93C75.0066 214.762 74.7079 214.519 74.4839 214.202C74.2599 213.885 74.1479 213.502 74.1479 213.054C74.1479 212.522 74.2786 212.097 74.5399 211.78C74.8106 211.453 75.1699 211.215 75.6179 211.066C76.0752 210.907 76.5746 210.828 77.1159 210.828H78.8799C78.8799 210.427 78.8146 210.105 78.6839 209.862C78.5532 209.61 78.3759 209.428 78.1519 209.316C77.9279 209.195 77.6666 209.134 77.3679 209.134C76.9759 209.134 76.6306 209.227 76.3319 209.414C76.0426 209.591 75.8606 209.876 75.7859 210.268H74.2879C74.3346 209.764 74.5026 209.335 74.7919 208.98C75.0906 208.625 75.4686 208.355 75.9259 208.168C76.3832 207.981 76.8686 207.888 77.3819 207.888C78.0539 207.888 78.6092 208.014 79.0479 208.266C79.4959 208.509 79.8272 208.849 80.0419 209.288C80.2659 209.727 80.3779 210.226 80.3779 210.786V212.914C80.3872 213.185 80.4432 213.385 80.5459 213.516C80.6579 213.637 80.8539 213.707 81.1339 213.726V215C80.7606 215 80.4339 214.958 80.1539 214.874C79.8832 214.79 79.6592 214.664 79.4819 214.496C79.3046 214.319 79.1646 214.095 79.0619 213.824C78.8379 214.197 78.5112 214.515 78.0819 214.776C77.6526 215.037 77.1626 215.168 76.6119 215.168ZM76.9619 213.95C77.3446 213.95 77.6806 213.857 77.9699 213.67C78.2592 213.474 78.4832 213.222 78.6419 212.914C78.8006 212.597 78.8799 212.256 78.8799 211.892V211.864H77.2279C76.9572 211.864 76.7006 211.897 76.4579 211.962C76.2246 212.027 76.0332 212.139 75.8839 212.298C75.7439 212.447 75.6739 212.657 75.6739 212.928C75.6739 213.283 75.7999 213.544 76.0519 213.712C76.3039 213.871 76.6072 213.95 76.9619 213.95ZM84.7588 215C84.0681 215 83.5361 214.832 83.1628 214.496C82.7895 214.16 82.6028 213.609 82.6028 212.844V209.302H81.5528V208.056H82.6028V206.376H84.0868V208.056H85.8508V209.302H84.0868V212.844C84.0868 213.199 84.1661 213.437 84.3248 213.558C84.4835 213.679 84.7308 213.74 85.0668 213.74H85.8508V215H84.7588ZM90.225 215.168C89.5437 215.168 88.9417 215.014 88.419 214.706C87.8964 214.398 87.4857 213.969 87.187 213.418C86.8977 212.867 86.753 212.237 86.753 211.528C86.753 210.791 86.8977 210.151 87.187 209.61C87.4764 209.069 87.8824 208.649 88.405 208.35C88.937 208.042 89.5484 207.888 90.239 207.888C90.911 207.888 91.499 208.037 92.003 208.336C92.507 208.625 92.899 209.022 93.179 209.526C93.4684 210.03 93.613 210.604 93.613 211.248C93.613 211.379 93.6084 211.491 93.599 211.584C93.599 211.677 93.5897 211.789 93.571 211.92H88.237C88.265 212.312 88.363 212.662 88.531 212.97C88.699 213.269 88.9277 213.507 89.217 213.684C89.5064 213.852 89.8377 213.936 90.211 213.936C90.6124 213.936 90.953 213.847 91.233 213.67C91.5224 213.483 91.737 213.222 91.877 212.886H93.417C93.2957 213.306 93.0904 213.689 92.801 214.034C92.521 214.379 92.1664 214.655 91.737 214.86C91.3077 215.065 90.8037 215.168 90.225 215.168ZM88.251 210.87H92.101C92.0824 210.329 91.891 209.904 91.527 209.596C91.163 209.279 90.7197 209.12 90.197 209.12C89.7304 209.12 89.3057 209.265 88.923 209.554C88.5404 209.843 88.3164 210.282 88.251 210.87ZM97.9327 215.168C97.242 215.168 96.6447 215.005 96.1407 214.678C95.646 214.342 95.2634 213.899 94.9927 213.348C94.7314 212.797 94.6007 212.181 94.6007 211.5C94.6007 210.828 94.7314 210.221 94.9927 209.68C95.2634 209.129 95.646 208.695 96.1407 208.378C96.6447 208.051 97.242 207.888 97.9327 207.888C98.446 207.888 98.9127 207.995 99.3327 208.21C99.7527 208.415 100.093 208.709 100.355 209.092V205.2H101.853V215H100.411L100.355 213.922C100.131 214.286 99.8087 214.585 99.3887 214.818C98.9687 215.051 98.4834 215.168 97.9327 215.168ZM98.2267 213.866C98.6654 213.866 99.0434 213.763 99.3607 213.558C99.678 213.353 99.9207 213.073 100.089 212.718C100.257 212.363 100.341 211.967 100.341 211.528C100.341 211.024 100.243 210.599 100.047 210.254C99.86 209.909 99.6034 209.643 99.2767 209.456C98.9594 209.269 98.6047 209.176 98.2127 209.176C97.8114 209.176 97.452 209.274 97.1347 209.47C96.8174 209.666 96.5654 209.937 96.3787 210.282C96.2014 210.627 96.1127 211.038 96.1127 211.514C96.1127 211.981 96.206 212.391 96.3927 212.746C96.5794 213.101 96.8314 213.376 97.1487 213.572C97.466 213.768 97.8254 213.866 98.2267 213.866ZM107.079 215V205.2H110.229C110.92 205.2 111.508 205.307 111.993 205.522C112.488 205.727 112.871 206.035 113.141 206.446C113.412 206.857 113.547 207.365 113.547 207.972C113.547 208.709 113.356 209.283 112.973 209.694C112.591 210.095 112.068 210.366 111.405 210.506L114.177 215H112.385L109.921 210.758H108.563V215H107.079ZM108.563 209.498H110.201C110.668 209.498 111.037 209.437 111.307 209.316C111.578 209.195 111.765 209.022 111.867 208.798C111.979 208.565 112.035 208.289 112.035 207.972C112.035 207.655 111.979 207.384 111.867 207.16C111.765 206.927 111.578 206.749 111.307 206.628C111.037 206.507 110.668 206.446 110.201 206.446H108.563V209.498ZM117.993 215.168C117.311 215.168 116.709 215.014 116.187 214.706C115.664 214.398 115.253 213.969 114.955 213.418C114.665 212.867 114.521 212.237 114.521 211.528C114.521 210.791 114.665 210.151 114.955 209.61C115.244 209.069 115.65 208.649 116.173 208.35C116.705 208.042 117.316 207.888 118.007 207.888C118.679 207.888 119.267 208.037 119.771 208.336C120.275 208.625 120.667 209.022 120.947 209.526C121.236 210.03 121.381 210.604 121.381 211.248C121.381 211.379 121.376 211.491 121.367 211.584C121.367 211.677 121.357 211.789 121.339 211.92H116.005C116.033 212.312 116.131 212.662 116.299 212.97C116.467 213.269 116.695 213.507 116.985 213.684C117.274 213.852 117.605 213.936 117.979 213.936C118.38 213.936 118.721 213.847 119.001 213.67C119.29 213.483 119.505 213.222 119.645 212.886H121.185C121.063 213.306 120.858 213.689 120.569 214.034C120.289 214.379 119.934 214.655 119.505 214.86C119.075 215.065 118.571 215.168 117.993 215.168ZM116.019 210.87H119.869C119.85 210.329 119.659 209.904 119.295 209.596C118.931 209.279 118.487 209.12 117.965 209.12C117.498 209.12 117.073 209.265 116.691 209.554C116.308 209.843 116.084 210.282 116.019 210.87ZM125.854 215.168C125.173 215.168 124.571 215.014 124.048 214.706C123.526 214.398 123.115 213.973 122.816 213.432C122.518 212.881 122.368 212.247 122.368 211.528C122.368 210.819 122.513 210.189 122.802 209.638C123.092 209.087 123.498 208.658 124.02 208.35C124.543 208.042 125.154 207.888 125.854 207.888C126.685 207.888 127.385 208.103 127.954 208.532C128.533 208.952 128.911 209.545 129.088 210.31H127.52C127.436 209.965 127.24 209.685 126.932 209.47C126.634 209.255 126.27 209.148 125.84 209.148C125.402 209.148 125.038 209.26 124.748 209.484C124.459 209.699 124.24 209.988 124.09 210.352C123.95 210.707 123.88 211.099 123.88 211.528C123.88 211.976 123.955 212.382 124.104 212.746C124.263 213.101 124.487 213.385 124.776 213.6C125.075 213.805 125.43 213.908 125.84 213.908C126.26 213.908 126.62 213.81 126.918 213.614C127.217 213.409 127.418 213.115 127.52 212.732H129.088C128.976 213.227 128.771 213.656 128.472 214.02C128.174 214.384 127.8 214.669 127.352 214.874C126.904 215.07 126.405 215.168 125.854 215.168ZM133.633 215.168C132.952 215.168 132.35 215.014 131.827 214.706C131.305 214.398 130.894 213.969 130.595 213.418C130.306 212.867 130.161 212.237 130.161 211.528C130.161 210.791 130.306 210.151 130.595 209.61C130.885 209.069 131.291 208.649 131.813 208.35C132.345 208.042 132.957 207.888 133.647 207.888C134.319 207.888 134.907 208.037 135.411 208.336C135.915 208.625 136.307 209.022 136.587 209.526C136.877 210.03 137.021 210.604 137.021 211.248C137.021 211.379 137.017 211.491 137.007 211.584C137.007 211.677 136.998 211.789 136.979 211.92H131.645C131.673 212.312 131.771 212.662 131.939 212.97C132.107 213.269 132.336 213.507 132.625 213.684C132.915 213.852 133.246 213.936 133.619 213.936C134.021 213.936 134.361 213.847 134.641 213.67C134.931 213.483 135.145 213.222 135.285 212.886H136.825C136.704 213.306 136.499 213.689 136.209 214.034C135.929 214.379 135.575 214.655 135.145 214.86C134.716 215.065 134.212 215.168 133.633 215.168ZM131.659 210.87H135.509C135.491 210.329 135.299 209.904 134.935 209.596C134.571 209.279 134.128 209.12 133.605 209.12C133.139 209.12 132.714 209.265 132.331 209.554C131.949 209.843 131.725 210.282 131.659 210.87ZM139.101 206.838C138.83 206.838 138.597 206.745 138.401 206.558C138.214 206.362 138.121 206.124 138.121 205.844C138.121 205.573 138.214 205.345 138.401 205.158C138.597 204.971 138.83 204.878 139.101 204.878C139.381 204.878 139.614 204.971 139.801 205.158C139.997 205.345 140.095 205.573 140.095 205.844C140.095 206.124 139.997 206.362 139.801 206.558C139.614 206.745 139.381 206.838 139.101 206.838ZM138.359 215V208.056H139.843V215H138.359ZM143.516 215L140.898 208.056H142.466L144.398 213.628L146.344 208.056H147.884L145.266 215H143.516ZM151.735 215.168C151.053 215.168 150.451 215.014 149.929 214.706C149.406 214.398 148.995 213.969 148.697 213.418C148.407 212.867 148.263 212.237 148.263 211.528C148.263 210.791 148.407 210.151 148.697 209.61C148.986 209.069 149.392 208.649 149.915 208.35C150.447 208.042 151.058 207.888 151.749 207.888C152.421 207.888 153.009 208.037 153.513 208.336C154.017 208.625 154.409 209.022 154.689 209.526C154.978 210.03 155.123 210.604 155.123 211.248C155.123 211.379 155.118 211.491 155.109 211.584C155.109 211.677 155.099 211.789 155.081 211.92H149.747C149.775 212.312 149.873 212.662 150.041 212.97C150.209 213.269 150.437 213.507 150.727 213.684C151.016 213.852 151.347 213.936 151.721 213.936C152.122 213.936 152.463 213.847 152.743 213.67C153.032 213.483 153.247 213.222 153.387 212.886H154.927C154.805 213.306 154.6 213.689 154.311 214.034C154.031 214.379 153.676 214.655 153.247 214.86C152.817 215.065 152.313 215.168 151.735 215.168ZM149.761 210.87H153.611C153.592 210.329 153.401 209.904 153.037 209.596C152.673 209.279 152.229 209.12 151.707 209.12C151.24 209.12 150.815 209.265 150.433 209.554C150.05 209.843 149.826 210.282 149.761 210.87Z" fill="#C7C5D1"/>
<path d="M342.23 215.168C341.334 215.168 340.615 214.944 340.074 214.496C339.533 214.048 339.141 213.441 338.898 212.676C338.655 211.911 338.534 211.052 338.534 210.1C338.534 209.148 338.655 208.289 338.898 207.524C339.141 206.759 339.533 206.152 340.074 205.704C340.615 205.256 341.334 205.032 342.23 205.032C343.126 205.032 343.84 205.251 344.372 205.69C344.913 206.129 345.305 206.731 345.548 207.496C345.791 208.261 345.912 209.129 345.912 210.1C345.912 211.071 345.791 211.939 345.548 212.704C345.305 213.469 344.913 214.071 344.372 214.51C343.84 214.949 343.126 215.168 342.23 215.168ZM342.23 213.838C342.986 213.838 343.537 213.507 343.882 212.844C344.227 212.172 344.4 211.257 344.4 210.1C344.4 208.943 344.223 208.028 343.868 207.356C343.523 206.684 342.977 206.348 342.23 206.348C341.483 206.348 340.933 206.684 340.578 207.356C340.223 208.028 340.046 208.943 340.046 210.1C340.046 211.257 340.223 212.172 340.578 212.844C340.933 213.507 341.483 213.838 342.23 213.838Z" fill="#C7C5D1"/>
<path d="M350.222 215V213.796L353.694 209.274H350.264V208.056H355.374V209.246L351.888 213.768H355.43V215H350.222ZM356.839 215V205.2H360.381C361.352 205.2 362.103 205.424 362.635 205.872C363.176 206.32 363.447 206.903 363.447 207.622C363.447 208.163 363.307 208.616 363.027 208.98C362.756 209.335 362.416 209.587 362.005 209.736C362.388 209.857 362.719 210.039 362.999 210.282C363.279 210.525 363.498 210.809 363.657 211.136C363.816 211.463 363.895 211.827 363.895 212.228C363.895 212.751 363.774 213.222 363.531 213.642C363.298 214.062 362.948 214.393 362.481 214.636C362.014 214.879 361.431 215 360.731 215H356.839ZM358.323 213.74H360.465C361.09 213.74 361.566 213.605 361.893 213.334C362.229 213.063 362.397 212.653 362.397 212.102C362.397 211.542 362.22 211.127 361.865 210.856C361.51 210.585 361.034 210.45 360.437 210.45H358.323V213.74ZM358.323 209.218H360.269C360.82 209.218 361.235 209.097 361.515 208.854C361.795 208.611 361.935 208.271 361.935 207.832C361.935 207.393 361.795 207.053 361.515 206.81C361.244 206.567 360.815 206.446 360.227 206.446H358.323V209.218ZM367.543 215V206.446H364.645V205.2H371.925V206.446H369.027V215H367.543ZM377.189 215.168C376.191 215.168 375.337 214.949 374.627 214.51C373.927 214.062 373.391 213.46 373.017 212.704C372.653 211.939 372.471 211.071 372.471 210.1C372.471 209.139 372.653 208.275 373.017 207.51C373.381 206.745 373.913 206.143 374.613 205.704C375.323 205.256 376.181 205.032 377.189 205.032C378.337 205.032 379.275 205.312 380.003 205.872C380.731 206.432 381.193 207.216 381.389 208.224H379.751C379.611 207.655 379.327 207.202 378.897 206.866C378.468 206.53 377.894 206.362 377.175 206.362C376.494 206.362 375.915 206.521 375.439 206.838C374.963 207.155 374.604 207.594 374.361 208.154C374.119 208.714 373.997 209.363 373.997 210.1C373.997 210.847 374.119 211.5 374.361 212.06C374.613 212.62 374.977 213.059 375.453 213.376C375.929 213.684 376.503 213.838 377.175 213.838C377.894 213.838 378.468 213.679 378.897 213.362C379.327 213.035 379.611 212.597 379.751 212.046H381.389C381.193 213.026 380.731 213.791 380.003 214.342C379.275 214.893 378.337 215.168 377.189 215.168Z" fill="#8B8A9E"/>
</g>
<g filter="url(#filter4_f_497_8132)">
<path d="M42.2 243.168C41.528 243.168 40.9167 243.051 40.366 242.818C39.8247 242.575 39.3953 242.225 39.078 241.768C38.7607 241.301 38.5973 240.727 38.588 240.046H40.142C40.1513 240.606 40.3427 241.059 40.716 241.404C41.0893 241.74 41.584 241.908 42.2 241.908C42.732 241.908 43.166 241.782 43.502 241.53C43.8473 241.269 44.02 240.909 44.02 240.452C44.02 240.172 43.9733 239.943 43.88 239.766C43.7867 239.579 43.6327 239.416 43.418 239.276C43.2127 239.136 42.9373 239.005 42.592 238.884C42.2467 238.753 41.822 238.604 41.318 238.436C40.758 238.24 40.296 238.021 39.932 237.778C39.5773 237.526 39.3113 237.237 39.134 236.91C38.9567 236.574 38.868 236.196 38.868 235.776C38.868 235.179 39.008 234.679 39.288 234.278C39.5773 233.867 39.9647 233.559 40.45 233.354C40.9353 233.139 41.472 233.032 42.06 233.032C42.6573 233.032 43.194 233.139 43.67 233.354C44.1553 233.559 44.5427 233.872 44.832 234.292C45.1307 234.703 45.2847 235.207 45.294 235.804H43.712C43.712 235.375 43.5533 235.015 43.236 234.726C42.928 234.437 42.5173 234.292 42.004 234.292C41.5653 234.283 41.192 234.395 40.884 234.628C40.576 234.861 40.422 235.202 40.422 235.65C40.422 235.967 40.5107 236.224 40.688 236.42C40.8653 236.616 41.1313 236.789 41.486 236.938C41.8407 237.087 42.284 237.255 42.816 237.442C43.1613 237.554 43.4973 237.685 43.824 237.834C44.16 237.983 44.4587 238.17 44.72 238.394C44.9813 238.609 45.1867 238.875 45.336 239.192C45.4947 239.509 45.574 239.897 45.574 240.354C45.574 240.951 45.42 241.46 45.112 241.88C44.8133 242.291 44.4073 242.608 43.894 242.832C43.39 243.056 42.8253 243.168 42.2 243.168ZM50.1254 243.168C49.4441 243.168 48.8421 243.014 48.3194 242.706C47.7968 242.398 47.3861 241.969 47.0874 241.418C46.7981 240.867 46.6534 240.237 46.6534 239.528C46.6534 238.791 46.7981 238.151 47.0874 237.61C47.3768 237.069 47.7828 236.649 48.3054 236.35C48.8374 236.042 49.4488 235.888 50.1394 235.888C50.8114 235.888 51.3994 236.037 51.9034 236.336C52.4074 236.625 52.7994 237.022 53.0794 237.526C53.3688 238.03 53.5134 238.604 53.5134 239.248C53.5134 239.379 53.5088 239.491 53.4994 239.584C53.4994 239.677 53.4901 239.789 53.4714 239.92H48.1374C48.1654 240.312 48.2634 240.662 48.4314 240.97C48.5994 241.269 48.8281 241.507 49.1174 241.684C49.4068 241.852 49.7381 241.936 50.1114 241.936C50.5128 241.936 50.8534 241.847 51.1334 241.67C51.4228 241.483 51.6374 241.222 51.7774 240.886H53.3174C53.1961 241.306 52.9908 241.689 52.7014 242.034C52.4214 242.379 52.0668 242.655 51.6374 242.86C51.2081 243.065 50.7041 243.168 50.1254 243.168ZM48.1514 238.87H52.0014C51.9828 238.329 51.7914 237.904 51.4274 237.596C51.0634 237.279 50.6201 237.12 50.0974 237.12C49.6308 237.12 49.2061 237.265 48.8234 237.554C48.4408 237.843 48.2168 238.282 48.1514 238.87ZM54.7531 243V236.056H56.1811L56.2231 237.232C56.4564 236.812 56.7737 236.485 57.1751 236.252C57.5857 236.009 58.0664 235.888 58.6171 235.888V237.442H58.2111C57.5484 237.442 57.0537 237.615 56.7271 237.96C56.4004 238.296 56.2371 238.814 56.2371 239.514V243H54.7531ZM61.6766 243L59.0586 236.056H60.6266L62.5586 241.628L64.5046 236.056H66.0446L63.4266 243H61.6766ZM67.8568 234.838C67.5861 234.838 67.3528 234.745 67.1568 234.558C66.9701 234.362 66.8768 234.124 66.8768 233.844C66.8768 233.573 66.9701 233.345 67.1568 233.158C67.3528 232.971 67.5861 232.878 67.8568 232.878C68.1368 232.878 68.3701 232.971 68.5568 233.158C68.7528 233.345 68.8508 233.573 68.8508 233.844C68.8508 234.124 68.7528 234.362 68.5568 234.558C68.3701 234.745 68.1368 234.838 67.8568 234.838ZM67.1148 243V236.056H68.5988V243H67.1148ZM73.5183 243.168C72.837 243.168 72.235 243.014 71.7123 242.706C71.1897 242.398 70.779 241.973 70.4803 241.432C70.1817 240.881 70.0323 240.247 70.0323 239.528C70.0323 238.819 70.177 238.189 70.4663 237.638C70.7557 237.087 71.1617 236.658 71.6843 236.35C72.207 236.042 72.8183 235.888 73.5183 235.888C74.349 235.888 75.049 236.103 75.6183 236.532C76.197 236.952 76.575 237.545 76.7523 238.31H75.1843C75.1003 237.965 74.9043 237.685 74.5963 237.47C74.2977 237.255 73.9337 237.148 73.5043 237.148C73.0657 237.148 72.7017 237.26 72.4123 237.484C72.123 237.699 71.9037 237.988 71.7543 238.352C71.6143 238.707 71.5443 239.099 71.5443 239.528C71.5443 239.976 71.619 240.382 71.7683 240.746C71.927 241.101 72.151 241.385 72.4403 241.6C72.739 241.805 73.0937 241.908 73.5043 241.908C73.9243 241.908 74.2837 241.81 74.5823 241.614C74.881 241.409 75.0817 241.115 75.1843 240.732H76.7523C76.6403 241.227 76.435 241.656 76.1363 242.02C75.8377 242.384 75.4643 242.669 75.0163 242.874C74.5683 243.07 74.069 243.168 73.5183 243.168ZM81.2973 243.168C80.616 243.168 80.014 243.014 79.4913 242.706C78.9686 242.398 78.558 241.969 78.2593 241.418C77.97 240.867 77.8253 240.237 77.8253 239.528C77.8253 238.791 77.97 238.151 78.2593 237.61C78.5486 237.069 78.9546 236.649 79.4773 236.35C80.0093 236.042 80.6206 235.888 81.3113 235.888C81.9833 235.888 82.5713 236.037 83.0753 236.336C83.5793 236.625 83.9713 237.022 84.2513 237.526C84.5406 238.03 84.6853 238.604 84.6853 239.248C84.6853 239.379 84.6806 239.491 84.6713 239.584C84.6713 239.677 84.662 239.789 84.6433 239.92H79.3093C79.3373 240.312 79.4353 240.662 79.6033 240.97C79.7713 241.269 80 241.507 80.2893 241.684C80.5786 241.852 80.91 241.936 81.2833 241.936C81.6846 241.936 82.0253 241.847 82.3053 241.67C82.5946 241.483 82.8093 241.222 82.9493 240.886H84.4893C84.368 241.306 84.1626 241.689 83.8733 242.034C83.5933 242.379 83.2386 242.655 82.8093 242.86C82.38 243.065 81.876 243.168 81.2973 243.168ZM79.3233 238.87H83.1733C83.1546 238.329 82.9633 237.904 82.5993 237.596C82.2353 237.279 81.792 237.12 81.2693 237.12C80.8026 237.12 80.378 237.265 79.9953 237.554C79.6126 237.843 79.3886 238.282 79.3233 238.87ZM89.5656 243V233.2H95.6416V234.446H91.0496V237.316H95.0116V238.562H91.0496V243H89.5656ZM99.7543 243.168C99.073 243.168 98.471 243.014 97.9483 242.706C97.4257 242.398 97.015 241.969 96.7163 241.418C96.427 240.867 96.2823 240.237 96.2823 239.528C96.2823 238.791 96.427 238.151 96.7163 237.61C97.0057 237.069 97.4117 236.649 97.9343 236.35C98.4663 236.042 99.0777 235.888 99.7683 235.888C100.44 235.888 101.028 236.037 101.532 236.336C102.036 236.625 102.428 237.022 102.708 237.526C102.998 238.03 103.142 238.604 103.142 239.248C103.142 239.379 103.138 239.491 103.128 239.584C103.128 239.677 103.119 239.789 103.1 239.92H97.7663C97.7943 240.312 97.8923 240.662 98.0603 240.97C98.2283 241.269 98.457 241.507 98.7463 241.684C99.0357 241.852 99.367 241.936 99.7403 241.936C100.142 241.936 100.482 241.847 100.762 241.67C101.052 241.483 101.266 241.222 101.406 240.886H102.946C102.825 241.306 102.62 241.689 102.33 242.034C102.05 242.379 101.696 242.655 101.266 242.86C100.837 243.065 100.333 243.168 99.7543 243.168ZM97.7803 238.87H101.63C101.612 238.329 101.42 237.904 101.056 237.596C100.692 237.279 100.249 237.12 99.7263 237.12C99.2597 237.12 98.835 237.265 98.4523 237.554C98.0697 237.843 97.8457 238.282 97.7803 238.87ZM107.602 243.168C106.921 243.168 106.319 243.014 105.796 242.706C105.273 242.398 104.863 241.969 104.564 241.418C104.275 240.867 104.13 240.237 104.13 239.528C104.13 238.791 104.275 238.151 104.564 237.61C104.853 237.069 105.259 236.649 105.782 236.35C106.314 236.042 106.925 235.888 107.616 235.888C108.288 235.888 108.876 236.037 109.38 236.336C109.884 236.625 110.276 237.022 110.556 237.526C110.845 238.03 110.99 238.604 110.99 239.248C110.99 239.379 110.985 239.491 110.976 239.584C110.976 239.677 110.967 239.789 110.948 239.92H105.614C105.642 240.312 105.74 240.662 105.908 240.97C106.076 241.269 106.305 241.507 106.594 241.684C106.883 241.852 107.215 241.936 107.588 241.936C107.989 241.936 108.33 241.847 108.61 241.67C108.899 241.483 109.114 241.222 109.254 240.886H110.794C110.673 241.306 110.467 241.689 110.178 242.034C109.898 242.379 109.543 242.655 109.114 242.86C108.685 243.065 108.181 243.168 107.602 243.168ZM105.628 238.87H109.478C109.459 238.329 109.268 237.904 108.904 237.596C108.54 237.279 108.097 237.12 107.574 237.12C107.107 237.12 106.683 237.265 106.3 237.554C105.917 237.843 105.693 238.282 105.628 238.87Z" fill="#C7C5D1"/>
<path d="M312.302 243.168C311.406 243.168 310.688 242.944 310.146 242.496C309.605 242.048 309.213 241.441 308.97 240.676C308.728 239.911 308.606 239.052 308.606 238.1C308.606 237.148 308.728 236.289 308.97 235.524C309.213 234.759 309.605 234.152 310.146 233.704C310.688 233.256 311.406 233.032 312.302 233.032C313.198 233.032 313.912 233.251 314.444 233.69C314.986 234.129 315.378 234.731 315.62 235.496C315.863 236.261 315.984 237.129 315.984 238.1C315.984 239.071 315.863 239.939 315.62 240.704C315.378 241.469 314.986 242.071 314.444 242.51C313.912 242.949 313.198 243.168 312.302 243.168ZM312.302 241.838C313.058 241.838 313.609 241.507 313.954 240.844C314.3 240.172 314.472 239.257 314.472 238.1C314.472 236.943 314.295 236.028 313.94 235.356C313.595 234.684 313.049 234.348 312.302 234.348C311.556 234.348 311.005 234.684 310.65 235.356C310.296 236.028 310.118 236.943 310.118 238.1C310.118 239.257 310.296 240.172 310.65 240.844C311.005 241.507 311.556 241.838 312.302 241.838ZM317.9 243.112C317.62 243.112 317.382 243.019 317.186 242.832C316.999 242.636 316.906 242.403 316.906 242.132C316.906 241.861 316.999 241.633 317.186 241.446C317.382 241.25 317.62 241.152 317.9 241.152C318.171 241.152 318.399 241.25 318.586 241.446C318.782 241.633 318.88 241.861 318.88 242.132C318.88 242.403 318.782 242.636 318.586 242.832C318.399 243.019 318.171 243.112 317.9 243.112ZM323.513 243.168C322.617 243.168 321.898 242.944 321.357 242.496C320.816 242.048 320.424 241.441 320.181 240.676C319.938 239.911 319.817 239.052 319.817 238.1C319.817 237.148 319.938 236.289 320.181 235.524C320.424 234.759 320.816 234.152 321.357 233.704C321.898 233.256 322.617 233.032 323.513 233.032C324.409 233.032 325.123 233.251 325.655 233.69C326.196 234.129 326.588 234.731 326.831 235.496C327.074 236.261 327.195 237.129 327.195 238.1C327.195 239.071 327.074 239.939 326.831 240.704C326.588 241.469 326.196 242.071 325.655 242.51C325.123 242.949 324.409 243.168 323.513 243.168ZM323.513 241.838C324.269 241.838 324.82 241.507 325.165 240.844C325.51 240.172 325.683 239.257 325.683 238.1C325.683 236.943 325.506 236.028 325.151 235.356C324.806 234.684 324.26 234.348 323.513 234.348C322.766 234.348 322.216 234.684 321.861 235.356C321.506 236.028 321.329 236.943 321.329 238.1C321.329 239.257 321.506 240.172 321.861 240.844C322.216 241.507 322.766 241.838 323.513 241.838ZM331.771 243.168C330.875 243.168 330.156 242.944 329.615 242.496C329.074 242.048 328.682 241.441 328.439 240.676C328.196 239.911 328.075 239.052 328.075 238.1C328.075 237.148 328.196 236.289 328.439 235.524C328.682 234.759 329.074 234.152 329.615 233.704C330.156 233.256 330.875 233.032 331.771 233.032C332.667 233.032 333.381 233.251 333.913 233.69C334.454 234.129 334.846 234.731 335.089 235.496C335.332 236.261 335.453 237.129 335.453 238.1C335.453 239.071 335.332 239.939 335.089 240.704C334.846 241.469 334.454 242.071 333.913 242.51C333.381 242.949 332.667 243.168 331.771 243.168ZM331.771 241.838C332.527 241.838 333.078 241.507 333.423 240.844C333.768 240.172 333.941 239.257 333.941 238.1C333.941 236.943 333.764 236.028 333.409 235.356C333.064 234.684 332.518 234.348 331.771 234.348C331.024 234.348 330.474 234.684 330.119 235.356C329.764 236.028 329.587 236.943 329.587 238.1C329.587 239.257 329.764 240.172 330.119 240.844C330.474 241.507 331.024 241.838 331.771 241.838ZM340.029 243.168C339.133 243.168 338.414 242.944 337.873 242.496C337.331 242.048 336.939 241.441 336.697 240.676C336.454 239.911 336.333 239.052 336.333 238.1C336.333 237.148 336.454 236.289 336.697 235.524C336.939 234.759 337.331 234.152 337.873 233.704C338.414 233.256 339.133 233.032 340.029 233.032C340.925 233.032 341.639 233.251 342.171 233.69C342.712 234.129 343.104 234.731 343.347 235.496C343.589 236.261 343.711 237.129 343.711 238.1C343.711 239.071 343.589 239.939 343.347 240.704C343.104 241.469 342.712 242.071 342.171 242.51C341.639 242.949 340.925 243.168 340.029 243.168ZM340.029 241.838C340.785 241.838 341.335 241.507 341.681 240.844C342.026 240.172 342.199 239.257 342.199 238.1C342.199 236.943 342.021 236.028 341.667 235.356C341.321 234.684 340.775 234.348 340.029 234.348C339.282 234.348 338.731 234.684 338.377 235.356C338.022 236.028 337.845 236.943 337.845 238.1C337.845 239.257 338.022 240.172 338.377 240.844C338.731 241.507 339.282 241.838 340.029 241.838ZM345.319 243V241.754H348.147V234.866L345.389 235.552V234.46L348.777 233.2H349.561V241.754H351.955V243H345.319Z" fill="#C7C5D1"/>
<path d="M356.839 243V233.2H360.381C361.352 233.2 362.103 233.424 362.635 233.872C363.176 234.32 363.447 234.903 363.447 235.622C363.447 236.163 363.307 236.616 363.027 236.98C362.756 237.335 362.416 237.587 362.005 237.736C362.388 237.857 362.719 238.039 362.999 238.282C363.279 238.525 363.498 238.809 363.657 239.136C363.816 239.463 363.895 239.827 363.895 240.228C363.895 240.751 363.774 241.222 363.531 241.642C363.298 242.062 362.948 242.393 362.481 242.636C362.014 242.879 361.431 243 360.731 243H356.839ZM358.323 241.74H360.465C361.09 241.74 361.566 241.605 361.893 241.334C362.229 241.063 362.397 240.653 362.397 240.102C362.397 239.542 362.22 239.127 361.865 238.856C361.51 238.585 361.034 238.45 360.437 238.45H358.323V241.74ZM358.323 237.218H360.269C360.82 237.218 361.235 237.097 361.515 236.854C361.795 236.611 361.935 236.271 361.935 235.832C361.935 235.393 361.795 235.053 361.515 234.81C361.244 234.567 360.815 234.446 360.227 234.446H358.323V237.218ZM367.543 243V234.446H364.645V233.2H371.925V234.446H369.027V243H367.543ZM377.189 243.168C376.191 243.168 375.337 242.949 374.627 242.51C373.927 242.062 373.391 241.46 373.017 240.704C372.653 239.939 372.471 239.071 372.471 238.1C372.471 237.139 372.653 236.275 373.017 235.51C373.381 234.745 373.913 234.143 374.613 233.704C375.323 233.256 376.181 233.032 377.189 233.032C378.337 233.032 379.275 233.312 380.003 233.872C380.731 234.432 381.193 235.216 381.389 236.224H379.751C379.611 235.655 379.327 235.202 378.897 234.866C378.468 234.53 377.894 234.362 377.175 234.362C376.494 234.362 375.915 234.521 375.439 234.838C374.963 235.155 374.604 235.594 374.361 236.154C374.119 236.714 373.997 237.363 373.997 238.1C373.997 238.847 374.119 239.5 374.361 240.06C374.613 240.62 374.977 241.059 375.453 241.376C375.929 241.684 376.503 241.838 377.175 241.838C377.894 241.838 378.468 241.679 378.897 241.362C379.327 241.035 379.611 240.597 379.751 240.046H381.389C381.193 241.026 380.731 241.791 380.003 242.342C379.275 242.893 378.337 243.168 377.189 243.168Z" fill="#8B8A9E"/>
</g>
<g filter="url(#filter5_ii_497_8132)">
<path d="M22 284C22 277.373 27.3726 272 34 272H386C392.627 272 398 277.373 398 284V300C398 306.627 392.627 312 386 312H34C27.3726 312 22 306.627 22 300V284Z" fill="url(#paint1_linear_497_8132)"/>
<path d="M34 272.5H386C392.351 272.5 397.5 277.649 397.5 284V300C397.5 306.351 392.351 311.5 386 311.5H34C27.6487 311.5 22.5 306.351 22.5 300V284C22.5 277.649 27.6487 272.5 34 272.5Z" stroke="url(#paint2_linear_497_8132)"/>
<path d="M155.75 289H145.25C144.561 289 144 288.439 144 287.75C144 287.061 144.561 286.5 145.25 286.5C145.664 286.5 146 286.164 146 285.75C146 285.336 145.664 285 145.25 285C143.733 285 142.5 286.233 142.5 287.75V296.25C142.5 297.767 143.733 299 145.25 299H155.75C156.715 299 157.5 298.215 157.5 297.25V290.75C157.5 289.785 156.715 289 155.75 289ZM153.75 295.25C153.061 295.25 152.5 294.689 152.5 294C152.5 293.311 153.061 292.75 153.75 292.75C154.439 292.75 155 293.311 155 294C155 294.689 154.439 295.25 153.75 295.25Z" fill="#0F0F12"/>
<path d="M147.03 288.005C146.919 288.005 146.807 287.981 146.701 287.929C146.329 287.747 146.175 287.298 146.357 286.926L147.564 284.46C147.767 284.042 148.123 283.726 148.564 283.572C149.008 283.419 149.481 283.447 149.901 283.651L155.915 286.568C156.288 286.749 156.443 287.197 156.263 287.57C156.082 287.943 155.634 288.098 155.261 287.918L149.246 285.001C149.165 284.961 149.093 284.977 149.055 284.99C149.018 285.003 148.951 285.036 148.912 285.117L147.704 287.585C147.574 287.851 147.307 288.005 147.03 288.005Z" fill="#0F0F12"/>
<path d="M173.424 297.192C172.283 297.192 171.307 296.941 170.496 296.44C169.685 295.939 169.067 295.251 168.64 294.376C168.224 293.501 168.016 292.515 168.016 291.416C168.016 290.307 168.224 289.315 168.64 288.44C169.056 287.565 169.664 286.877 170.464 286.376C171.275 285.864 172.261 285.608 173.424 285.608C174.747 285.608 175.829 285.933 176.672 286.584C177.515 287.235 178.043 288.141 178.256 289.304H176.256C176.107 288.675 175.792 288.173 175.312 287.8C174.832 287.427 174.197 287.24 173.408 287.24C172.651 287.24 172.011 287.416 171.488 287.768C170.965 288.12 170.565 288.605 170.288 289.224C170.011 289.843 169.872 290.573 169.872 291.416C169.872 292.248 170.011 292.979 170.288 293.608C170.565 294.227 170.965 294.712 171.488 295.064C172.021 295.405 172.661 295.576 173.408 295.576C174.197 295.576 174.832 295.4 175.312 295.048C175.792 294.685 176.107 294.2 176.256 293.592H178.256C178.043 294.723 177.515 295.608 176.672 296.248C175.829 296.877 174.747 297.192 173.424 297.192ZM183.594 297.192C182.815 297.192 182.116 297.021 181.498 296.68C180.879 296.339 180.388 295.859 180.026 295.24C179.674 294.611 179.498 293.875 179.498 293.032C179.498 292.168 179.684 291.427 180.058 290.808C180.431 290.189 180.932 289.715 181.562 289.384C182.191 289.043 182.89 288.872 183.658 288.872C184.436 288.872 185.135 289.043 185.754 289.384C186.383 289.715 186.879 290.189 187.242 290.808C187.615 291.427 187.802 292.168 187.802 293.032C187.802 293.832 187.62 294.547 187.258 295.176C186.906 295.805 186.41 296.301 185.77 296.664C185.14 297.016 184.415 297.192 183.594 297.192ZM183.61 295.624C184.068 295.624 184.468 295.512 184.81 295.288C185.162 295.053 185.439 294.739 185.642 294.344C185.844 293.949 185.946 293.501 185.946 293C185.946 292.477 185.844 292.024 185.642 291.64C185.439 291.256 185.162 290.963 184.81 290.76C184.468 290.547 184.074 290.44 183.626 290.44C183.156 290.44 182.746 290.552 182.394 290.776C182.052 291 181.791 291.309 181.61 291.704C181.428 292.088 181.338 292.531 181.338 293.032C181.338 293.576 181.439 294.045 181.642 294.44C181.855 294.824 182.132 295.117 182.474 295.32C182.826 295.523 183.204 295.624 183.61 295.624ZM189.207 297V289.064H190.967L190.999 290.152C191.266 289.736 191.634 289.421 192.103 289.208C192.573 288.984 193.063 288.872 193.575 288.872C194.503 288.872 195.255 289.165 195.831 289.752C196.407 290.339 196.695 291.203 196.695 292.344V297H194.903V292.568C194.903 291.896 194.743 291.368 194.423 290.984C194.103 290.6 193.634 290.408 193.015 290.408C192.397 290.408 191.906 290.616 191.543 291.032C191.191 291.437 191.015 291.992 191.015 292.696V297H189.207ZM198.27 297V289.064H200.03L200.062 290.152C200.329 289.736 200.697 289.421 201.166 289.208C201.635 288.984 202.126 288.872 202.638 288.872C203.566 288.872 204.318 289.165 204.894 289.752C205.47 290.339 205.758 291.203 205.758 292.344V297H203.966V292.568C203.966 291.896 203.806 291.368 203.486 290.984C203.166 290.6 202.697 290.408 202.078 290.408C201.459 290.408 200.969 290.616 200.606 291.032C200.254 291.437 200.078 291.992 200.078 292.696V297H198.27ZM211.044 297.192C210.244 297.192 209.546 297.016 208.948 296.664C208.351 296.301 207.882 295.811 207.54 295.192C207.21 294.563 207.044 293.843 207.044 293.032C207.044 292.189 207.21 291.459 207.54 290.84C207.882 290.221 208.351 289.741 208.948 289.4C209.556 289.048 210.26 288.872 211.06 288.872C211.839 288.872 212.516 289.043 213.092 289.384C213.668 289.715 214.122 290.173 214.452 290.76C214.783 291.347 214.948 292.013 214.948 292.76C214.948 292.909 214.943 293.043 214.932 293.16C214.932 293.277 214.922 293.405 214.9 293.544H208.868C208.9 293.96 209.007 294.333 209.188 294.664C209.37 294.984 209.615 295.235 209.924 295.416C210.244 295.597 210.607 295.688 211.012 295.688C211.45 295.688 211.818 295.592 212.116 295.4C212.426 295.208 212.666 294.931 212.836 294.568H214.74C214.591 295.048 214.351 295.485 214.02 295.88C213.7 296.275 213.29 296.595 212.788 296.84C212.298 297.075 211.716 297.192 211.044 297.192ZM208.884 292.28H213.092C213.082 291.693 212.874 291.229 212.468 290.888C212.063 290.547 211.578 290.376 211.012 290.376C210.5 290.376 210.036 290.531 209.62 290.84C209.215 291.149 208.97 291.629 208.884 292.28ZM219.95 297.192C219.172 297.192 218.484 297.016 217.886 296.664C217.289 296.312 216.82 295.827 216.478 295.208C216.137 294.579 215.966 293.853 215.966 293.032C215.966 292.221 216.132 291.507 216.462 290.888C216.793 290.259 217.257 289.768 217.854 289.416C218.452 289.053 219.15 288.872 219.95 288.872C220.91 288.872 221.716 289.117 222.366 289.608C223.028 290.088 223.465 290.776 223.678 291.672H221.758C221.662 291.299 221.454 290.995 221.134 290.76C220.814 290.525 220.414 290.408 219.934 290.408C219.454 290.408 219.06 290.531 218.75 290.776C218.441 291.011 218.206 291.331 218.046 291.736C217.897 292.131 217.822 292.563 217.822 293.032C217.822 293.523 217.902 293.965 218.062 294.36C218.222 294.755 218.457 295.069 218.766 295.304C219.086 295.539 219.476 295.656 219.934 295.656C220.404 295.656 220.793 295.549 221.102 295.336C221.422 295.112 221.641 294.797 221.758 294.392H223.678C223.55 294.968 223.31 295.469 222.958 295.896C222.617 296.312 222.19 296.632 221.678 296.856C221.166 297.08 220.59 297.192 219.95 297.192ZM228.093 297C227.282 297 226.664 296.803 226.237 296.408C225.81 296.013 225.597 295.384 225.597 294.52V290.584H224.461V289.064H225.597V287.144H227.421V289.064H229.357V290.584H227.421V294.536C227.421 294.899 227.506 295.149 227.677 295.288C227.848 295.416 228.104 295.48 228.445 295.48H229.357V297H228.093ZM237.943 297L234.023 285.8H235.879L239.015 295.288L240.391 291.176L238.503 285.8H240.343L241.607 289.736L242.855 285.8H244.695L242.807 291.176L244.167 295.288L247.319 285.8H249.175L245.255 297H243.111L241.607 292.584L240.071 297H237.943ZM251.532 297.192C251.041 297.192 250.582 297.101 250.156 296.92C249.74 296.728 249.404 296.451 249.148 296.088C248.902 295.725 248.78 295.293 248.78 294.792C248.78 294.195 248.929 293.709 249.228 293.336C249.526 292.963 249.932 292.691 250.444 292.52C250.956 292.339 251.521 292.248 252.14 292.248H254.124C254.124 291.821 254.054 291.475 253.916 291.208C253.777 290.931 253.585 290.728 253.34 290.6C253.094 290.461 252.806 290.392 252.476 290.392C252.049 290.392 251.676 290.488 251.356 290.68C251.036 290.872 250.838 291.187 250.764 291.624H248.94C248.993 291.048 249.185 290.557 249.516 290.152C249.857 289.736 250.289 289.421 250.812 289.208C251.334 288.984 251.894 288.872 252.492 288.872C253.26 288.872 253.894 289.016 254.396 289.304C254.908 289.581 255.292 289.971 255.548 290.472C255.814 290.973 255.948 291.555 255.948 292.216V294.632C255.958 294.92 256.028 295.128 256.156 295.256C256.294 295.384 256.508 295.453 256.796 295.464V297C256.348 297 255.964 296.952 255.644 296.856C255.324 296.76 255.057 296.616 254.844 296.424C254.641 296.232 254.476 295.981 254.348 295.672C254.092 296.099 253.713 296.461 253.212 296.76C252.721 297.048 252.161 297.192 251.532 297.192ZM251.996 295.72C252.412 295.72 252.774 295.624 253.084 295.432C253.404 295.229 253.654 294.963 253.836 294.632C254.028 294.291 254.124 293.917 254.124 293.512V293.464H252.268C251.99 293.464 251.724 293.501 251.468 293.576C251.212 293.651 251.009 293.773 250.86 293.944C250.71 294.104 250.636 294.328 250.636 294.616C250.636 295 250.769 295.283 251.036 295.464C251.302 295.635 251.622 295.72 251.996 295.72ZM257.989 297V285.8H259.797V297H257.989ZM261.504 297V285.8H263.312V297H261.504ZM268.685 297.192C267.885 297.192 267.186 297.016 266.589 296.664C265.992 296.301 265.522 295.811 265.181 295.192C264.85 294.563 264.685 293.843 264.685 293.032C264.685 292.189 264.85 291.459 265.181 290.84C265.522 290.221 265.992 289.741 266.589 289.4C267.197 289.048 267.901 288.872 268.701 288.872C269.48 288.872 270.157 289.043 270.733 289.384C271.309 289.715 271.762 290.173 272.093 290.76C272.424 291.347 272.589 292.013 272.589 292.76C272.589 292.909 272.584 293.043 272.573 293.16C272.573 293.277 272.562 293.405 272.541 293.544H266.509C266.541 293.96 266.648 294.333 266.829 294.664C267.01 294.984 267.256 295.235 267.565 295.416C267.885 295.597 268.248 295.688 268.653 295.688C269.09 295.688 269.458 295.592 269.757 295.4C270.066 295.208 270.306 294.931 270.477 294.568H272.381C272.232 295.048 271.992 295.485 271.661 295.88C271.341 296.275 270.93 296.595 270.429 296.84C269.938 297.075 269.357 297.192 268.685 297.192ZM266.525 292.28H270.733C270.722 291.693 270.514 291.229 270.109 290.888C269.704 290.547 269.218 290.376 268.653 290.376C268.141 290.376 267.677 290.531 267.261 290.84C266.856 291.149 266.61 291.629 266.525 292.28ZM276.827 297C276.017 297 275.398 296.803 274.971 296.408C274.545 296.013 274.331 295.384 274.331 294.52V290.584H273.195V289.064H274.331V287.144H276.155V289.064H278.091V290.584H276.155V294.536C276.155 294.899 276.241 295.149 276.411 295.288C276.582 295.416 276.838 295.48 277.179 295.48H278.091V297H276.827Z" fill="black"/>
</g>
<g clip-path="url(#clip0_497_8132)">
<path d="M36.9951 331.25L35.6973 336.059H40.1133L29.0508 343.503L31.0566 336.059H26.1377L27.3857 331.25H36.9951ZM31.1797 342.595L41.6494 336.056H44.1377L31.1797 342.595ZM38.2402 335.349H36.7021L37.8623 331.25H39.3506L38.2402 335.349Z" fill="#8B8A9E"/>
</g>
<g clip-path="url(#clip1_497_8132)">
<path d="M70.8426 330.778H72.9537L68.3417 336.049L73.7674 343.222H69.5184L66.191 338.872L62.3836 343.222H60.2712L65.2044 337.584L60 330.778H64.3555L67.3633 334.754L70.8426 330.778ZM70.1017 341.959H71.2715L63.7206 331.975H62.4653L70.1017 341.959Z" fill="#8B8A9E"/>
</g>
<g clip-path="url(#clip2_497_8132)">
<path d="M97.5526 337.427C98.3696 337.9 98.7782 338.135 99.227 338.136C99.6759 338.136 100.084 337.901 100.902 337.43L106.104 334.436C106.339 334.301 106.484 334.05 106.484 333.779C106.484 333.508 106.339 333.257 106.104 333.122L100.9 330.126C100.083 329.656 99.6749 329.421 99.227 329.421C98.7787 329.421 98.3702 329.657 97.5541 330.128L93.0822 332.705C93.046 332.726 93.0277 332.737 93.011 332.747C91.4852 333.643 90.543 335.274 90.5288 337.044V337.208C90.5424 338.975 91.4831 340.605 93.0062 341.502L93.078 341.544L95.8739 343.16C97.5101 344.106 98.3283 344.579 99.227 344.579C100.125 344.579 100.944 344.107 102.581 343.162L105.536 341.456C106.354 340.985 106.763 340.748 106.988 340.359C107.212 339.97 107.212 339.498 107.212 338.553V336.723C107.212 336.465 107.075 336.227 106.852 336.098C106.628 335.969 106.353 335.969 106.13 336.097L100.062 339.589C99.6544 339.824 99.4507 339.941 99.2265 339.941C99.0029 339.941 98.7991 339.824 98.3911 339.59L94.2858 337.23C94.0794 337.112 93.9768 337.052 93.8935 337.042C93.705 337.017 93.5237 337.123 93.452 337.299C93.4205 337.376 93.4211 337.495 93.4226 337.733C93.4232 337.908 93.4237 337.995 93.4404 338.076C93.4771 338.256 93.5714 338.419 93.7091 338.539C93.7709 338.594 93.8469 338.637 93.9983 338.724L98.3885 341.262C98.7976 341.498 99.0024 341.616 99.2265 341.616C99.4518 341.616 99.656 341.498 100.065 341.262L105.446 338.156C105.586 338.076 105.656 338.036 105.708 338.066C105.761 338.096 105.761 338.177 105.761 338.338V339.167C105.761 339.403 105.761 339.521 105.705 339.619C105.648 339.716 105.546 339.775 105.342 339.893L100.904 342.454C100.085 342.927 99.6764 343.163 99.227 343.162C98.7777 343.162 98.3681 342.926 97.5505 342.453L93.4001 340.052L93.3708 340.035C92.5013 339.526 91.9655 338.596 91.9597 337.588V336.792C91.9597 336.236 92.2557 335.721 92.737 335.441C93.1634 335.194 93.6892 335.194 94.1156 335.44L97.5526 337.427Z" fill="#8B8A9E"/>
</g>
<path d="M302.045 341V332.6H304.985C305.577 332.6 306.089 332.692 306.521 332.876C306.953 333.06 307.289 333.336 307.529 333.704C307.777 334.064 307.901 334.512 307.901 335.048C307.901 335.584 307.777 336.036 307.529 336.404C307.281 336.772 306.937 337.048 306.497 337.232C306.065 337.408 305.561 337.496 304.985 337.496H303.317V341H302.045ZM303.317 336.416H304.961C305.561 336.416 305.985 336.296 306.233 336.056C306.481 335.808 306.605 335.472 306.605 335.048C306.605 334.616 306.481 334.28 306.233 334.04C305.985 333.792 305.561 333.668 304.961 333.668H303.317V336.416ZM311.471 341.144C310.895 341.144 310.375 341.02 309.911 340.772C309.455 340.516 309.091 340.152 308.819 339.68C308.555 339.208 308.423 338.652 308.423 338.012C308.423 337.372 308.559 336.82 308.831 336.356C309.111 335.892 309.483 335.536 309.947 335.288C310.419 335.032 310.943 334.904 311.519 334.904C312.095 334.904 312.615 335.028 313.079 335.276C313.543 335.524 313.915 335.88 314.195 336.344C314.475 336.808 314.615 337.364 314.615 338.012C314.615 338.62 314.479 339.16 314.207 339.632C313.943 340.104 313.575 340.476 313.103 340.748C312.631 341.012 312.087 341.144 311.471 341.144ZM311.483 340.04C311.835 340.04 312.147 339.952 312.419 339.776C312.699 339.6 312.919 339.36 313.079 339.056C313.239 338.744 313.319 338.392 313.319 338C313.319 337.6 313.239 337.252 313.079 336.956C312.927 336.652 312.715 336.42 312.443 336.26C312.171 336.092 311.855 336.008 311.495 336.008C311.119 336.008 310.795 336.096 310.523 336.272C310.259 336.448 310.055 336.688 309.911 336.992C309.775 337.288 309.707 337.628 309.707 338.012C309.707 338.452 309.787 338.824 309.947 339.128C310.115 339.432 310.335 339.66 310.607 339.812C310.879 339.964 311.171 340.04 311.483 340.04ZM316.741 341L314.989 335.048H316.261L317.425 339.644L318.697 335.048H320.077L321.349 339.632L322.501 335.048H323.749L321.997 340.988H320.653L319.369 336.464L318.085 341H316.741ZM327.102 341.144C326.518 341.144 326.002 341.012 325.554 340.748C325.106 340.484 324.754 340.116 324.498 339.644C324.25 339.172 324.126 338.632 324.126 338.024C324.126 337.392 324.25 336.844 324.498 336.38C324.746 335.916 325.094 335.556 325.542 335.3C325.998 335.036 326.522 334.904 327.114 334.904C327.69 334.904 328.194 335.032 328.626 335.288C329.058 335.536 329.394 335.876 329.634 336.308C329.882 336.74 330.006 337.232 330.006 337.784C330.006 337.896 330.002 337.992 329.994 338.072C329.994 338.152 329.986 338.248 329.97 338.36H325.398C325.422 338.696 325.506 338.996 325.65 339.26C325.794 339.516 325.99 339.72 326.238 339.872C326.486 340.016 326.77 340.088 327.09 340.088C327.434 340.088 327.726 340.012 327.966 339.86C328.214 339.7 328.398 339.476 328.518 339.188H329.838C329.734 339.548 329.558 339.876 329.31 340.172C329.07 340.468 328.766 340.704 328.398 340.88C328.03 341.056 327.598 341.144 327.102 341.144ZM325.41 337.46H328.71C328.694 336.996 328.53 336.632 328.218 336.368C327.906 336.096 327.526 335.96 327.078 335.96C326.678 335.96 326.314 336.084 325.986 336.332C325.658 336.58 325.466 336.956 325.41 337.46ZM331.069 341V335.048H332.293L332.329 336.056C332.529 335.696 332.801 335.416 333.145 335.216C333.497 335.008 333.909 334.904 334.381 334.904V336.236H334.033C333.465 336.236 333.041 336.384 332.761 336.68C332.481 336.968 332.341 337.412 332.341 338.012V341H331.069ZM337.895 341.144C337.311 341.144 336.795 341.012 336.347 340.748C335.899 340.484 335.547 340.116 335.291 339.644C335.043 339.172 334.919 338.632 334.919 338.024C334.919 337.392 335.043 336.844 335.291 336.38C335.539 335.916 335.887 335.556 336.335 335.3C336.791 335.036 337.315 334.904 337.907 334.904C338.483 334.904 338.987 335.032 339.419 335.288C339.851 335.536 340.187 335.876 340.427 336.308C340.675 336.74 340.799 337.232 340.799 337.784C340.799 337.896 340.795 337.992 340.787 338.072C340.787 338.152 340.779 338.248 340.763 338.36H336.191C336.215 338.696 336.299 338.996 336.443 339.26C336.587 339.516 336.783 339.72 337.031 339.872C337.279 340.016 337.563 340.088 337.883 340.088C338.227 340.088 338.519 340.012 338.759 339.86C339.007 339.7 339.191 339.476 339.311 339.188H340.631C340.527 339.548 340.351 339.876 340.103 340.172C339.863 340.468 339.559 340.704 339.191 340.88C338.823 341.056 338.391 341.144 337.895 341.144ZM336.203 337.46H339.503C339.487 336.996 339.323 336.632 339.011 336.368C338.699 336.096 338.319 335.96 337.871 335.96C337.471 335.96 337.107 336.084 336.779 336.332C336.451 336.58 336.259 336.956 336.203 337.46ZM344.502 341.144C343.91 341.144 343.398 341.004 342.966 340.724C342.542 340.436 342.214 340.056 341.982 339.584C341.758 339.112 341.646 338.584 341.646 338C341.646 337.424 341.758 336.904 341.982 336.44C342.214 335.968 342.542 335.596 342.966 335.324C343.398 335.044 343.91 334.904 344.502 334.904C344.942 334.904 345.342 334.996 345.702 335.18C346.062 335.356 346.354 335.608 346.578 335.936V332.6H347.862V341H346.626L346.578 340.076C346.386 340.388 346.11 340.644 345.75 340.844C345.39 341.044 344.974 341.144 344.502 341.144ZM344.754 340.028C345.13 340.028 345.454 339.94 345.726 339.764C345.998 339.588 346.206 339.348 346.35 339.044C346.494 338.74 346.566 338.4 346.566 338.024C346.566 337.592 346.482 337.228 346.314 336.932C346.154 336.636 345.934 336.408 345.654 336.248C345.382 336.088 345.078 336.008 344.742 336.008C344.398 336.008 344.09 336.092 343.818 336.26C343.546 336.428 343.33 336.66 343.17 336.956C343.018 337.252 342.942 337.604 342.942 338.012C342.942 338.412 343.022 338.764 343.182 339.068C343.342 339.372 343.558 339.608 343.83 339.776C344.102 339.944 344.41 340.028 344.754 340.028ZM355.558 341.144C355.11 341.144 354.702 341.056 354.334 340.88C353.974 340.696 353.686 340.432 353.47 340.088L353.422 341H352.198V332.6H353.47V335.96C353.678 335.648 353.958 335.396 354.31 335.204C354.662 335.004 355.078 334.904 355.558 334.904C356.142 334.904 356.646 335.04 357.07 335.312C357.502 335.584 357.834 335.956 358.066 336.428C358.298 336.9 358.414 337.428 358.414 338.012C358.414 338.596 358.298 339.128 358.066 339.608C357.834 340.08 357.502 340.456 357.07 340.736C356.646 341.008 356.142 341.144 355.558 341.144ZM355.294 340.028C355.662 340.028 355.982 339.944 356.254 339.776C356.526 339.6 356.738 339.36 356.89 339.056C357.042 338.744 357.118 338.396 357.118 338.012C357.118 337.612 357.038 337.264 356.878 336.968C356.726 336.664 356.514 336.428 356.242 336.26C355.97 336.092 355.654 336.008 355.294 336.008C354.942 336.008 354.63 336.096 354.358 336.272C354.086 336.44 353.87 336.676 353.71 336.98C353.558 337.276 353.482 337.624 353.482 338.024C353.482 338.408 353.558 338.752 353.71 339.056C353.87 339.36 354.086 339.6 354.358 339.776C354.63 339.944 354.942 340.028 355.294 340.028ZM359.712 343.64L361.032 340.736L358.548 335.048H359.952L361.704 339.392L363.528 335.048H364.86L361.056 343.64H359.712ZM368.483 341V340.016L372.479 333.68H368.531V332.6H373.955V333.584L369.947 339.908H373.991V341H368.483ZM377.844 341.144C377.26 341.144 376.744 341.012 376.296 340.748C375.848 340.484 375.496 340.116 375.24 339.644C374.992 339.172 374.868 338.632 374.868 338.024C374.868 337.392 374.992 336.844 375.24 336.38C375.488 335.916 375.836 335.556 376.284 335.3C376.74 335.036 377.264 334.904 377.856 334.904C378.432 334.904 378.936 335.032 379.368 335.288C379.8 335.536 380.136 335.876 380.376 336.308C380.624 336.74 380.748 337.232 380.748 337.784C380.748 337.896 380.744 337.992 380.736 338.072C380.736 338.152 380.728 338.248 380.712 338.36H376.14C376.164 338.696 376.248 338.996 376.392 339.26C376.536 339.516 376.732 339.72 376.98 339.872C377.228 340.016 377.512 340.088 377.832 340.088C378.176 340.088 378.468 340.012 378.708 339.86C378.956 339.7 379.14 339.476 379.26 339.188H380.58C380.476 339.548 380.3 339.876 380.052 340.172C379.812 340.468 379.508 340.704 379.14 340.88C378.772 341.056 378.34 341.144 377.844 341.144ZM376.152 337.46H379.452C379.436 336.996 379.272 336.632 378.96 336.368C378.648 336.096 378.268 335.96 377.82 335.96C377.42 335.96 377.056 336.084 376.728 336.332C376.4 336.58 376.208 336.956 376.152 337.46ZM384.067 341.144C383.579 341.144 383.159 341.044 382.807 340.844C382.455 340.636 382.183 340.34 381.991 339.956C381.799 339.564 381.703 339.096 381.703 338.552V335.048H382.963V338.384C382.963 338.912 383.083 339.324 383.323 339.62C383.571 339.916 383.931 340.064 384.403 340.064C384.891 340.064 385.275 339.904 385.555 339.584C385.835 339.256 385.975 338.808 385.975 338.24V335.048H387.247V341H386.023L385.999 340.112C385.799 340.44 385.527 340.696 385.183 340.88C384.847 341.056 384.475 341.144 384.067 341.144ZM390.984 341.144C390.52 341.144 390.096 341.064 389.712 340.904C389.328 340.736 389.016 340.5 388.776 340.196C388.536 339.892 388.396 339.536 388.356 339.128H389.64C389.696 339.416 389.844 339.652 390.084 339.836C390.324 340.02 390.624 340.112 390.984 340.112C391.304 340.112 391.564 340.044 391.764 339.908C391.964 339.764 392.064 339.576 392.064 339.344C392.064 339.144 391.996 338.988 391.86 338.876C391.732 338.764 391.564 338.676 391.356 338.612C391.156 338.548 390.936 338.492 390.696 338.444C390.328 338.356 389.98 338.248 389.652 338.12C389.332 337.992 389.072 337.816 388.872 337.592C388.672 337.368 388.572 337.068 388.572 336.692C388.572 336.324 388.668 336.008 388.86 335.744C389.06 335.472 389.332 335.264 389.676 335.12C390.02 334.976 390.408 334.904 390.84 334.904C391.488 334.904 392.028 335.068 392.46 335.396C392.892 335.716 393.132 336.188 393.18 336.812H391.956C391.924 336.532 391.804 336.316 391.596 336.164C391.396 336.012 391.136 335.936 390.816 335.936C390.52 335.936 390.28 335.996 390.096 336.116C389.912 336.228 389.82 336.4 389.82 336.632C389.82 336.792 389.884 336.928 390.012 337.04C390.14 337.144 390.304 337.232 390.504 337.304C390.712 337.368 390.928 337.428 391.152 337.484C391.56 337.572 391.924 337.68 392.244 337.808C392.564 337.936 392.82 338.116 393.012 338.348C393.204 338.58 393.304 338.9 393.312 339.308C393.312 339.676 393.208 340 393 340.28C392.8 340.552 392.524 340.764 392.172 340.916C391.828 341.068 391.432 341.144 390.984 341.144Z" fill="#8B8A9E"/>
<g filter="url(#filter6_d_497_8132)">
<path d="M355 149.5C349.753 149.5 345.5 153.753 345.5 159C345.5 164.247 349.753 168.5 355 168.5C360.247 168.5 364.5 164.247 364.5 159C364.494 153.756 360.244 149.506 355 149.5ZM351.61 153.5C352.624 152.856 353.799 152.51 355 152.5C358.588 152.506 361.494 155.412 361.5 159C361.49 160.201 361.144 161.376 360.5 162.39L351.61 153.5ZM355 165.5C351.412 165.494 348.506 162.588 348.5 159C348.504 157.788 348.851 156.603 349.5 155.58L358.44 164.52C357.417 165.169 356.232 165.516 355.02 165.52L355 165.5Z" fill="white"/>
<path fill-rule="evenodd" clip-rule="evenodd" d="M346 159C346 163.97 350.03 168 355 168C359.97 168 364 163.97 364 159C364 154.029 359.97 150 355 150C350.03 150 346 154.029 346 159ZM350.826 153.39C351.993 152.521 353.434 152 355 152C358.866 152 362 155.134 362 159C362 160.567 361.48 162.008 360.61 163.174L350.826 153.39ZM348 159C348 157.422 348.529 155.971 349.409 154.801L359.199 164.591C358.028 165.472 356.577 166 355 166C351.134 166 348 162.866 348 159Z" fill="url(#paint3_linear_497_8132)"/>
<path fill-rule="evenodd" clip-rule="evenodd" d="M345 152.5V136.5L356.6 148.108H349.554L349.402 148.232L345 152.5Z" fill="white"/>
<path fill-rule="evenodd" clip-rule="evenodd" d="M346 138.8V150L348.969 147.131L349.129 146.992L354.165 147L346 138.8Z" fill="black"/>
</g>
</g>
<defs>
<filter id="filter0_d_497_8132" x="0" y="0" width="420" height="370" filterUnits="userSpaceOnUse" color-interpolation-filters="sRGB">
<feFlood flood-opacity="0" result="BackgroundImageFix"/>
<feColorMatrix in="SourceAlpha" type="matrix" values="0 0 0 0 0 0 0 0 0 0 0 0 0 0 0 0 0 0 127 0" result="hardAlpha"/>
<feOffset dy="2"/>
<feGaussianBlur stdDeviation="3"/>
<feComposite in2="hardAlpha" operator="out"/>
<feColorMatrix type="matrix" values="0 0 0 0 0.0588235 0 0 0 0 0.0588235 0 0 0 0 0.0705882 0 0 0 0.4 0"/>
<feBlend mode="normal" in2="BackgroundImageFix" result="effect1_dropShadow_497_8132"/>
<feBlend mode="normal" in="SourceGraphic" in2="effect1_dropShadow_497_8132" result="shape"/>
</filter>
<filter id="filter1_i_497_8132" x="28" y="110" width="135" height="74" filterUnits="userSpaceOnUse" color-interpolation-filters="sRGB">
<feFlood flood-opacity="0" result="BackgroundImageFix"/>
<feBlend mode="normal" in="SourceGraphic" in2="BackgroundImageFix" result="shape"/>
<feColorMatrix in="SourceAlpha" type="matrix" values="0 0 0 0 0 0 0 0 0 0 0 0 0 0 0 0 0 0 127 0" result="hardAlpha"/>
<feOffset dy="2"/>
<feGaussianBlur stdDeviation="1"/>
<feComposite in2="hardAlpha" operator="arithmetic" k2="-1" k3="1"/>
<feColorMatrix type="matrix" values="0 0 0 0 0.545098 0 0 0 0 0.541176 0 0 0 0 0.619608 0 0 0 0.1 0"/>
<feBlend mode="normal" in2="shape" result="effect1_innerShadow_497_8132"/>
</filter>
<filter id="filter2_ii_497_8132" x="163" y="112" width="219" height="36" filterUnits="userSpaceOnUse" color-interpolation-filters="sRGB">
<feFlood flood-opacity="0" result="BackgroundImageFix"/>
<feBlend mode="normal" in="SourceGraphic" in2="BackgroundImageFix" result="shape"/>
<feColorMatrix in="SourceAlpha" type="matrix" values="0 0 0 0 0 0 0 0 0 0 0 0 0 0 0 0 0 0 127 0" result="hardAlpha"/>
<feOffset dy="-2"/>
<feComposite in2="hardAlpha" operator="arithmetic" k2="-1" k3="1"/>
<feColorMatrix type="matrix" values="0 0 0 0 0.0588235 0 0 0 0 0.0588235 0 0 0 0 0.0705882 0 0 0 1 0"/>
<feBlend mode="normal" in2="shape" result="effect1_innerShadow_497_8132"/>
<feColorMatrix in="SourceAlpha" type="matrix" values="0 0 0 0 0 0 0 0 0 0 0 0 0 0 0 0 0 0 127 0" result="hardAlpha"/>
<feOffset dy="-1"/>
<feComposite in2="hardAlpha" operator="arithmetic" k2="-1" k3="1"/>
<feColorMatrix type="matrix" values="0 0 0 0 0.545098 0 0 0 0 0.541176 0 0 0 0 0.619608 0 0 0 0.25 0"/>
<feBlend mode="normal" in2="effect1_innerShadow_497_8132" result="effect2_innerShadow_497_8132"/>
</filter>
<filter id="filter3_f_497_8132" x="34" y="196" width="352" height="28" filterUnits="userSpaceOnUse" color-interpolation-filters="sRGB">
<feFlood flood-opacity="0" result="BackgroundImageFix"/>
<feBlend mode="normal" in="SourceGraphic" in2="BackgroundImageFix" result="shape"/>
<feGaussianBlur stdDeviation="2" result="effect1_foregroundBlur_497_8132"/>
</filter>
<filter id="filter4_f_497_8132" x="34" y="224" width="352" height="28" filterUnits="userSpaceOnUse" color-interpolation-filters="sRGB">
<feFlood flood-opacity="0" result="BackgroundImageFix"/>
<feBlend mode="normal" in="SourceGraphic" in2="BackgroundImageFix" result="shape"/>
<feGaussianBlur stdDeviation="2" result="effect1_foregroundBlur_497_8132"/>
</filter>
<filter id="filter5_ii_497_8132" x="22" y="272" width="376" height="44" filterUnits="userSpaceOnUse" color-interpolation-filters="sRGB">
<feFlood flood-opacity="0" result="BackgroundImageFix"/>
<feBlend mode="normal" in="SourceGraphic" in2="BackgroundImageFix" result="shape"/>
<feColorMatrix in="SourceAlpha" type="matrix" values="0 0 0 0 0 0 0 0 0 0 0 0 0 0 0 0 0 0 127 0" result="hardAlpha"/>
<feOffset dy="4"/>
<feGaussianBlur stdDeviation="6"/>
<feComposite in2="hardAlpha" operator="arithmetic" k2="-1" k3="1"/>
<feColorMatrix type="matrix" values="0 0 0 0 1 0 0 0 0 1 0 0 0 0 1 0 0 0 0.5 0"/>
<feBlend mode="normal" in2="shape" result="effect1_innerShadow_497_8132"/>
<feColorMatrix in="SourceAlpha" type="matrix" values="0 0 0 0 0 0 0 0 0 0 0 0 0 0 0 0 0 0 127 0" result="hardAlpha"/>
<feOffset dy="4"/>
<feGaussianBlur stdDeviation="2"/>
<feComposite in2="hardAlpha" operator="arithmetic" k2="-1" k3="1"/>
<feColorMatrix type="matrix" values="0 0 0 0 1 0 0 0 0 1 0 0 0 0 1 0 0 0 0.25 0"/>
<feBlend mode="normal" in2="effect1_innerShadow_497_8132" result="effect2_innerShadow_497_8132"/>
</filter>
<filter id="filter6_d_497_8132" x="339.2" y="133.2" width="31.6" height="43.6" filterUnits="userSpaceOnUse" color-interpolation-filters="sRGB">
<feFlood flood-opacity="0" result="BackgroundImageFix"/>
<feColorMatrix in="SourceAlpha" type="matrix" values="0 0 0 0 0 0 0 0 0 0 0 0 0 0 0 0 0 0 127 0" result="hardAlpha"/>
<feOffset dy="1"/>
<feGaussianBlur stdDeviation="0.9"/>
<feColorMatrix type="matrix" values="0 0 0 0 0 0 0 0 0 0 0 0 0 0 0 0 0 0 0.65 0"/>
<feBlend mode="normal" in2="BackgroundImageFix" result="effect1_dropShadow_497_8132"/>
<feBlend mode="normal" in="SourceGraphic" in2="effect1_dropShadow_497_8132" result="shape"/>
</filter>
<linearGradient id="paint0_linear_497_8132" x1="210" y1="4" x2="210" y2="362" gradientUnits="userSpaceOnUse">
<stop stop-color="#8B8A9E" stop-opacity="0.3"/>
<stop offset="1" stop-color="#8B8A9E" stop-opacity="0.1"/>
</linearGradient>
<linearGradient id="paint1_linear_497_8132" x1="398" y1="312" x2="389.409" y2="232.364" gradientUnits="userSpaceOnUse">
<stop offset="0.0243" stop-color="#FFF4AB"/>
<stop offset="0.2482" stop-color="#FFEBD4"/>
<stop offset="0.5961" stop-color="#FFD4FD"/>
<stop offset="0.970415" stop-color="#CEABFF"/>
</linearGradient>
<linearGradient id="paint2_linear_497_8132" x1="211.861" y1="272" x2="211.861" y2="312" gradientUnits="userSpaceOnUse">
<stop stop-color="white" stop-opacity="0.5"/>
<stop offset="1" stop-color="white" stop-opacity="0.3"/>
</linearGradient>
<linearGradient id="paint3_linear_497_8132" x1="355" y1="150" x2="355" y2="168" gradientUnits="userSpaceOnUse">
<stop stop-color="#F1F1F1"/>
<stop offset="1" stop-color="#D6D6D6"/>
</linearGradient>
<clipPath id="clip0_497_8132">
<rect width="18" height="18" fill="white" transform="translate(26 328)"/>
</clipPath>
<clipPath id="clip1_497_8132">
<rect width="14" height="12.4444" fill="white" transform="translate(60 330.778)"/>
</clipPath>
<clipPath id="clip2_497_8132">
<rect width="18" height="15.1579" fill="white" transform="translate(90 329.421)"/>
</clipPath>
</defs>
</svg>
