<svg width="70" height="70" viewBox="0 0 70 70" fill="none" xmlns="http://www.w3.org/2000/svg">
<g clipPath="url(#clip0_188_52)">
<path d="M35 70C54.33 70 70 54.33 70 35C70 15.67 54.33 0 35 0C15.67 0 0 15.67 0 35C0 54.33 15.67 70 35 70Z" fill="white"/>
<path d="M40.4094 28.7584H29.5906C29.4806 28.7557 29.3712 28.7754 29.269 28.8163C29.1668 28.8572 29.074 28.9184 28.9962 28.9962C28.9184 29.074 28.8572 29.1668 28.8163 29.269C28.7754 29.3712 28.7557 29.4806 28.7584 29.5906V40.4094C28.7557 40.5194 28.7754 40.6288 28.8163 40.731C28.8572 40.8332 28.9184 40.926 28.9962 41.0038C29.074 41.0816 29.1668 41.1428 29.269 41.1837C29.3712 41.2246 29.4806 41.2443 29.5906 41.2416H40.4094C40.5194 41.2443 40.6288 41.2246 40.731 41.1837C40.8332 41.1428 40.926 41.0816 41.0038 41.0038C41.0816 40.926 41.1428 40.8332 41.1837 40.731C41.2246 40.6288 41.2443 40.5194 41.2416 40.4094V29.5906C41.2443 29.4806 41.2246 29.3712 41.1837 29.269C41.1428 29.1668 41.0816 29.074 41.0038 28.9962C40.926 28.9184 40.8332 28.8572 40.731 28.8163C40.6288 28.7754 40.5194 28.7557 40.4094 28.7584Z" fill="#010203"/>
<path d="M27.9262 16.2751H17.1074C16.9974 16.2725 16.888 16.2922 16.7858 16.333C16.6836 16.3739 16.5908 16.4351 16.513 16.5129C16.4352 16.5908 16.374 16.6836 16.3331 16.7857C16.2922 16.8879 16.2725 16.9973 16.2752 17.1073V27.9261C16.2725 28.0362 16.2922 28.1456 16.3331 28.2477C16.374 28.3499 16.4352 28.4427 16.513 28.5205C16.5908 28.5984 16.6836 28.6596 16.7858 28.7004C16.888 28.7413 16.9974 28.761 17.1074 28.7583H27.9262C28.0362 28.761 28.1456 28.7413 28.2478 28.7004C28.35 28.6596 28.4428 28.5984 28.5206 28.5205C28.5984 28.4427 28.6596 28.3499 28.7005 28.2477C28.7414 28.1456 28.7611 28.0362 28.7584 27.9261V17.1073C28.7611 16.9973 28.7414 16.8879 28.7005 16.7857C28.6596 16.6836 28.5984 16.5908 28.5206 16.5129C28.4428 16.4351 28.35 16.3739 28.2478 16.333C28.1456 16.2922 28.0362 16.2725 27.9262 16.2751Z" fill="#010203"/>
<path d="M52.8926 16.2751H42.0738C41.9638 16.2725 41.8543 16.2922 41.7522 16.333C41.65 16.3739 41.5572 16.4351 41.4794 16.5129C41.4015 16.5908 41.3403 16.6836 41.2995 16.7857C41.2586 16.8879 41.2389 16.9973 41.2416 17.1073V27.9261C41.2389 28.0362 41.2586 28.1456 41.2995 28.2477C41.3403 28.3499 41.4015 28.4427 41.4794 28.5205C41.5572 28.5984 41.65 28.6596 41.7522 28.7004C41.8543 28.7413 41.9638 28.761 42.0738 28.7583H52.8926C53.0026 28.761 53.112 28.7413 53.2142 28.7004C53.3164 28.6596 53.4092 28.5984 53.487 28.5205C53.5648 28.4427 53.626 28.3499 53.6669 28.2477C53.7077 28.1456 53.7274 28.0362 53.7248 27.9261V17.1073C53.7274 16.9973 53.7077 16.8879 53.6669 16.7857C53.626 16.6836 53.5648 16.5908 53.487 16.5129C53.4092 16.4351 53.3164 16.3739 53.2142 16.333C53.112 16.2922 53.0026 16.2725 52.8926 16.2751Z" fill="#010203"/>
<path d="M27.9262 41.2416H17.1074C16.9974 41.2389 16.888 41.2586 16.7858 41.2995C16.6836 41.3403 16.5908 41.4015 16.513 41.4794C16.4352 41.5572 16.374 41.65 16.3331 41.7522C16.2922 41.8543 16.2725 41.9638 16.2752 42.0738V52.8926C16.2725 53.0026 16.2922 53.112 16.3331 53.2142C16.374 53.3164 16.4352 53.4092 16.513 53.487C16.5908 53.5648 16.6836 53.626 16.7858 53.6669C16.888 53.7077 16.9974 53.7274 17.1074 53.7248H27.9262C28.0362 53.7274 28.1456 53.7077 28.2478 53.6669C28.35 53.626 28.4428 53.5648 28.5206 53.487C28.5984 53.4092 28.6596 53.3164 28.7005 53.2142C28.7414 53.112 28.7611 53.0026 28.7584 52.8926V42.0738C28.7611 41.9638 28.7414 41.8543 28.7005 41.7522C28.6596 41.65 28.5984 41.5572 28.5206 41.4794C28.4428 41.4015 28.35 41.3403 28.2478 41.2995C28.1456 41.2586 28.0362 41.2389 27.9262 41.2416Z" fill="#010203"/>
<path d="M52.8926 41.2416H42.0738C41.9638 41.2389 41.8543 41.2586 41.7522 41.2995C41.65 41.3403 41.5572 41.4015 41.4794 41.4794C41.4015 41.5572 41.3403 41.65 41.2995 41.7522C41.2586 41.8543 41.2389 41.9638 41.2416 42.0738V52.8926C41.2389 53.0026 41.2586 53.112 41.2995 53.2142C41.3403 53.3164 41.4015 53.4092 41.4794 53.487C41.5572 53.5648 41.65 53.626 41.7522 53.6669C41.8543 53.7077 41.9638 53.7274 42.0738 53.7248H52.8926C53.0026 53.7274 53.112 53.7077 53.2142 53.6669C53.3164 53.626 53.4092 53.5648 53.487 53.487C53.5648 53.4092 53.626 53.3164 53.6669 53.2142C53.7077 53.112 53.7274 53.0026 53.7248 52.8926V42.0738C53.7274 41.9638 53.7077 41.8543 53.6669 41.7522C53.626 41.65 53.5648 41.5572 53.487 41.4794C53.4092 41.4015 53.3164 41.3403 53.2142 41.2995C53.112 41.2586 53.0026 41.2389 52.8926 41.2416Z" fill="#010203"/>
<path d="M40.4094 28.7584H29.5906C29.4806 28.7557 29.3712 28.7754 29.269 28.8163C29.1668 28.8572 29.074 28.9184 28.9962 28.9962C28.9184 29.074 28.8572 29.1668 28.8163 29.269C28.7754 29.3712 28.7557 29.4806 28.7584 29.5906V40.4094C28.7557 40.5194 28.7754 40.6288 28.8163 40.731C28.8572 40.8332 28.9184 40.926 28.9962 41.0038C29.074 41.0816 29.1668 41.1428 29.269 41.1837C29.3712 41.2246 29.4806 41.2443 29.5906 41.2416H40.4094C40.5194 41.2443 40.6288 41.2246 40.731 41.1837C40.8332 41.1428 40.926 41.0816 41.0038 41.0038C41.0816 40.926 41.1428 40.8332 41.1837 40.731C41.2246 40.6288 41.2443 40.5194 41.2416 40.4094V29.5906C41.2443 29.4806 41.2246 29.3712 41.1837 29.269C41.1428 29.1668 41.0816 29.074 41.0038 28.9962C40.926 28.9184 40.8332 28.8572 40.731 28.8163C40.6288 28.7754 40.5194 28.7557 40.4094 28.7584Z" fill="#010203"/>
<path d="M27.9262 16.2751H17.1074C16.9974 16.2725 16.888 16.2922 16.7858 16.333C16.6836 16.3739 16.5908 16.4351 16.513 16.5129C16.4352 16.5908 16.374 16.6836 16.3331 16.7857C16.2922 16.8879 16.2725 16.9973 16.2752 17.1073V27.9261C16.2725 28.0362 16.2922 28.1456 16.3331 28.2477C16.374 28.3499 16.4352 28.4427 16.513 28.5205C16.5908 28.5984 16.6836 28.6596 16.7858 28.7004C16.888 28.7413 16.9974 28.761 17.1074 28.7583H27.9262C28.0362 28.761 28.1456 28.7413 28.2478 28.7004C28.35 28.6596 28.4428 28.5984 28.5206 28.5205C28.5984 28.4427 28.6596 28.3499 28.7005 28.2477C28.7414 28.1456 28.7611 28.0362 28.7584 27.9261V17.1073C28.7611 16.9973 28.7414 16.8879 28.7005 16.7857C28.6596 16.6836 28.5984 16.5908 28.5206 16.5129C28.4428 16.4351 28.35 16.3739 28.2478 16.333C28.1456 16.2922 28.0362 16.2725 27.9262 16.2751Z" fill="#010203"/>
<path d="M52.8926 16.2751H42.0738C41.9638 16.2725 41.8543 16.2922 41.7522 16.333C41.65 16.3739 41.5572 16.4351 41.4794 16.5129C41.4015 16.5908 41.3403 16.6836 41.2995 16.7857C41.2586 16.8879 41.2389 16.9973 41.2416 17.1073V27.9261C41.2389 28.0362 41.2586 28.1456 41.2995 28.2477C41.3403 28.3499 41.4015 28.4427 41.4794 28.5205C41.5572 28.5984 41.65 28.6596 41.7522 28.7004C41.8543 28.7413 41.9638 28.761 42.0738 28.7583H52.8926C53.0026 28.761 53.112 28.7413 53.2142 28.7004C53.3164 28.6596 53.4092 28.5984 53.487 28.5205C53.5648 28.4427 53.626 28.3499 53.6669 28.2477C53.7077 28.1456 53.7274 28.0362 53.7248 27.9261V17.1073C53.7274 16.9973 53.7077 16.8879 53.6669 16.7857C53.626 16.6836 53.5648 16.5908 53.487 16.5129C53.4092 16.4351 53.3164 16.3739 53.2142 16.333C53.112 16.2922 53.0026 16.2725 52.8926 16.2751Z" fill="#010203"/>
<path d="M27.9262 41.2416H17.1074C16.9974 41.2389 16.888 41.2586 16.7858 41.2995C16.6836 41.3403 16.5908 41.4015 16.513 41.4794C16.4352 41.5572 16.374 41.65 16.3331 41.7522C16.2922 41.8543 16.2725 41.9638 16.2752 42.0738V52.8926C16.2725 53.0026 16.2922 53.112 16.3331 53.2142C16.374 53.3164 16.4352 53.4092 16.513 53.487C16.5908 53.5648 16.6836 53.626 16.7858 53.6669C16.888 53.7077 16.9974 53.7274 17.1074 53.7248H27.9262C28.0362 53.7274 28.1456 53.7077 28.2478 53.6669C28.35 53.626 28.4428 53.5648 28.5206 53.487C28.5984 53.4092 28.6596 53.3164 28.7005 53.2142C28.7414 53.112 28.7611 53.0026 28.7584 52.8926V42.0738C28.7611 41.9638 28.7414 41.8543 28.7005 41.7522C28.6596 41.65 28.5984 41.5572 28.5206 41.4794C28.4428 41.4015 28.35 41.3403 28.2478 41.2995C28.1456 41.2586 28.0362 41.2389 27.9262 41.2416Z" fill="#010203"/>
<path d="M52.8926 41.2416H42.0738C41.9638 41.2389 41.8543 41.2586 41.7522 41.2995C41.65 41.3403 41.5572 41.4015 41.4794 41.4794C41.4015 41.5572 41.3403 41.65 41.2995 41.7522C41.2586 41.8543 41.2389 41.9638 41.2416 42.0738V52.8926C41.2389 53.0026 41.2586 53.112 41.2995 53.2142C41.3403 53.3164 41.4015 53.4092 41.4794 53.487C41.5572 53.5648 41.65 53.626 41.7522 53.6669C41.8543 53.7077 41.9638 53.7274 42.0738 53.7248H52.8926C53.0026 53.7274 53.112 53.7077 53.2142 53.6669C53.3164 53.626 53.4092 53.5648 53.487 53.487C53.5648 53.4092 53.626 53.3164 53.6669 53.2142C53.7077 53.112 53.7274 53.0026 53.7248 52.8926V42.0738C53.7274 41.9638 53.7077 41.8543 53.6669 41.7522C53.626 41.65 53.5648 41.5572 53.487 41.4794C53.4092 41.4015 53.3164 41.3403 53.2142 41.2995C53.112 41.2586 53.0026 41.2389 52.8926 41.2416Z" fill="#010203"/>
</g>
<defs>
<clipPath id="clip0_188_52">
<rect width="70" height="70" fill="white"/>
</clipPath>
</defs>
</svg>
