<svg width="16" height="20" viewBox="0 0 16 20" fill="none" xmlns="http://www.w3.org/2000/svg">
<path d="M11.1742 1.7992L15.2786 5.86328C15.6277 6.20834 15.7992 6.55744 15.7932 6.91057C15.7871 7.26169 15.6378 7.58456 15.3432 7.87514C15.0365 8.17984 14.7055 8.33522 14.3504 8.34128C13.9952 8.34733 13.6441 8.17581 13.293 7.83074L9.09571 3.67384C8.61949 3.20165 8.1594 2.86668 7.71546 2.67094C7.27354 2.4752 6.8074 2.44493 6.31906 2.57811C5.83073 2.7113 5.30607 3.05636 4.74509 3.6133C3.97021 4.38011 3.60093 5.10051 3.63927 5.77449C3.67761 6.44847 4.06102 7.14465 4.7915 7.86908L9.02307 12.0603C9.3762 12.4094 9.54974 12.7585 9.54369 13.1056C9.53764 13.4527 9.38629 13.7755 9.08764 14.0701C8.78899 14.3647 8.46209 14.5201 8.1029 14.5322C7.74573 14.5443 7.39058 14.3748 7.03744 14.0257L2.93704 9.96166C2.26911 9.29978 1.78683 8.67423 1.4902 8.085C1.19356 7.49577 1.08258 6.82784 1.15926 6.08323C1.22787 5.44557 1.43369 4.82809 1.7727 4.22877C2.11373 3.62945 2.60005 3.01802 3.23166 2.39045C3.98434 1.64382 4.70271 1.07275 5.38881 0.675221C6.0749 0.277692 6.73677 0.0557214 7.37645 0.00930939C8.01613 -0.0371026 8.64774 0.0900259 9.27329 0.390695C9.89683 0.691364 10.5305 1.15952 11.1762 1.7992H11.1742Z" fill="url(#paint0_linear_1033_15266)"/>
<path d="M4.73903 18.2009L0.634596 14.1368C0.285497 13.7918 0.113974 13.4427 0.120028 13.0895C0.126082 12.7364 0.275407 12.4156 0.570023 12.125C0.876745 11.8203 1.20768 11.6649 1.56284 11.6588C1.91799 11.6528 2.26911 11.8223 2.62022 12.1694L6.81748 16.3263C7.29573 16.7985 7.7538 17.1334 8.19774 17.3292C8.64168 17.5249 9.1058 17.5552 9.59413 17.422C10.0825 17.2888 10.6071 16.9437 11.1681 16.3868C11.943 15.62 12.3123 14.8996 12.2739 14.2256C12.2356 13.5516 11.8522 12.8534 11.1217 12.131L8.86768 9.91737C8.51455 9.56827 8.34101 9.21918 8.34706 8.87209C8.35312 8.52501 8.50446 8.20215 8.80311 7.90753C9.10176 7.61292 9.42866 7.45754 9.78785 7.44543C10.145 7.43332 10.5002 7.60283 10.8533 7.95193L12.9782 10.0384C13.6461 10.7003 14.1284 11.3259 14.425 11.9151C14.7217 12.5043 14.8326 13.1723 14.756 13.9169C14.6873 14.5545 14.4815 15.172 14.1425 15.7713C13.8015 16.3707 13.3152 16.9821 12.6836 17.6097C11.9309 18.3563 11.2125 18.9274 10.5264 19.3249C9.84032 19.7224 9.17844 19.9444 8.53876 19.9908C7.89909 20.0372 7.26748 19.9101 6.64192 19.6094C6.01839 19.3087 5.38275 18.8406 4.73903 18.2009Z" fill="url(#paint1_linear_1033_15266)"/>
<path d="M7.29791 7.71374C8.13041 7.71374 8.80529 7.03886 8.80529 6.20636C8.80529 5.37385 8.13041 4.69897 7.29791 4.69897C6.4654 4.69897 5.79053 5.37385 5.79053 6.20636C5.79053 7.03886 6.4654 7.71374 7.29791 7.71374Z" fill="url(#paint2_radial_1033_15266)"/>
<defs>
<linearGradient id="paint0_linear_1033_15266" x1="14.6061" y1="4.15073" x2="1.8872" y2="9.80266" gradientUnits="userSpaceOnUse">
<stop stop-color="#070100"/>
<stop offset="0.36" stop-color="#77390D"/>
<stop offset="0.67" stop-color="#EA8101"/>
<stop offset="1" stop-color="#F4B852"/>
</linearGradient>
<linearGradient id="paint1_linear_1033_15266" x1="1.66116" y1="15.983" x2="16.3988" y2="11.5948" gradientUnits="userSpaceOnUse">
<stop stop-color="#070100"/>
<stop offset="0.37" stop-color="#77390D"/>
<stop offset="0.67" stop-color="#EA8101"/>
<stop offset="1" stop-color="#F4FB52"/>
</linearGradient>
<radialGradient id="paint2_radial_1033_15266" cx="0" cy="0" r="1" gradientUnits="userSpaceOnUse" gradientTransform="translate(7.29589 6.20837) scale(1.50738)">
<stop stop-color="#F4B852"/>
<stop offset="0.33" stop-color="#EA8101"/>
<stop offset="0.64" stop-color="#77390D"/>
<stop offset="1" stop-color="#070100"/>
</radialGradient>
</defs>
</svg>
