<svg width="100" height="24" viewBox="0 0 100 24" fill="none" xmlns="http://www.w3.org/2000/svg">
<path d="M2.85791 0L0.412903 9.41951H10.0484L5.69864 24L28.6689 9.41951H19.3706L21.912 0H2.85791Z" fill="url(#paint0_linear_483_3448)"/>
<path d="M21.8959 0H25.8243L23.4095 9.41951H19.3546L21.8959 0Z" fill="white"/>
<path d="M28.6661 9.41367H36.3242L5.69257 23.9941L28.6661 9.41367Z" fill="white"/>
<path d="M47.6166 13.6594H54.1323V17.178H42.7244V13.8807L49.1733 5.07288H42.7244V1.57634H54.1323V4.87372L47.6166 13.6594Z" fill="white"/>
<path d="M61.9506 5.05077V7.59573H66.9541V10.8931H61.9506V13.7036H67.6212V17.1781H57.592V1.57635H67.6212V5.05077H61.9506Z" fill="white"/>
<path d="M75.1637 1.57722V10.6284C75.1637 11.4693 75.3639 12.1111 75.7419 12.5759C76.1423 13.0406 76.7427 13.2619 77.5209 13.2619C78.2993 13.2619 78.922 13.0406 79.3445 12.5759C79.7447 12.1111 79.9448 11.4693 79.9448 10.6284V1.57722H84.3034V10.6284C84.3034 12.0668 83.9921 13.2841 83.3916 14.2799C82.7912 15.2978 81.9462 16.0503 80.9011 16.5592C79.8559 17.0683 78.6995 17.3117 77.4098 17.3117C76.12 17.3117 75.0081 17.0683 73.9851 16.5592C72.9845 16.0503 72.2062 15.2978 71.628 14.302C71.0498 13.3062 70.783 12.0668 70.783 10.6284V1.57722H75.1193H75.1637Z" fill="white"/>
<path d="M89.269 16.0498C88.0904 15.1867 87.4678 13.9475 87.3788 12.3541H92.0264C92.071 12.9074 92.2266 13.3057 92.5157 13.5491C92.8048 13.7926 93.1606 13.9253 93.6054 13.9253C94.0056 13.9253 94.3392 13.8369 94.5838 13.6156C94.8507 13.4164 94.9618 13.1508 94.9618 12.7746C94.9618 12.3099 94.7394 11.9558 94.3169 11.7124C93.8944 11.4689 93.1829 11.1812 92.2266 10.8714C91.2037 10.5394 90.3809 10.2075 89.736 9.89767C89.0911 9.58785 88.5574 9.12312 88.0904 8.50348C87.6234 7.88384 87.4011 7.08715 87.4011 6.11343C87.4011 5.13971 87.6457 4.25451 88.1571 3.52421C88.6685 2.79392 89.3579 2.2628 90.2475 1.88659C91.137 1.51037 92.1376 1.33333 93.2718 1.33333C95.0953 1.33333 96.5629 1.7538 97.6304 2.61687C98.7198 3.45782 99.2983 4.65285 99.387 6.17982H94.6505C94.6505 5.71509 94.4948 5.36101 94.2057 5.11757C93.9389 4.87415 93.5831 4.7635 93.1606 4.7635C92.827 4.7635 92.5602 4.85202 92.36 5.05118C92.1599 5.25036 92.0487 5.51592 92.0487 5.87C92.0487 6.15769 92.1599 6.42325 92.4045 6.62242C92.6269 6.84372 92.916 7.02076 93.2495 7.17568C93.5831 7.33059 94.0946 7.52975 94.7617 7.77319C95.7624 8.10513 96.5852 8.45922 97.23 8.79117C97.875 9.12312 98.431 9.58785 98.8981 10.1854C99.3652 10.7829 99.5871 11.5353 99.5871 12.4426C99.5871 13.35 99.3652 14.213 98.8981 14.9433C98.431 15.6736 97.7638 16.2711 96.8743 16.6916C95.9847 17.112 94.9396 17.3333 93.7388 17.3333C91.9153 17.3333 90.4254 16.9129 89.2468 16.0498H89.269Z" fill="white"/>
<defs>
<linearGradient id="paint0_linear_483_3448" x1="14.5409" y1="0" x2="14.5409" y2="19.309" gradientUnits="userSpaceOnUse">
<stop stop-color="#FFEB83"/>
<stop offset="0.247213" stop-color="#FFBF83"/>
<stop offset="0.682213" stop-color="#FD83FF"/>
<stop offset="1" stop-color="#B283FF"/>
</linearGradient>
</defs>
</svg>
