<svg width="18" height="18" viewBox="0 0 18 18" fill="none" xmlns="http://www.w3.org/2000/svg">
<path d="M8.02376 9.00582C8.84083 9.47826 9.24938 9.71396 9.69824 9.71448C10.1471 9.71448 10.5556 9.47931 11.3733 9.00897L16.5753 6.01509C16.8105 5.87996 16.9556 5.62908 16.9556 5.35776C16.9556 5.08646 16.8105 4.83556 16.5753 4.70043L11.3717 1.70499C10.5546 1.23465 10.1461 1 9.69824 1C9.2499 1 8.84135 1.2357 8.02532 1.70657L3.55338 4.28403C3.51724 4.30499 3.49891 4.31546 3.48215 4.32594C1.9564 5.22159 1.01414 6.85313 1 8.62242V8.78689C1.01362 10.5541 1.95431 12.1841 3.47743 13.0807L3.54918 13.1226L6.34507 14.739C7.98132 15.6844 8.79945 16.1573 9.69824 16.1579C10.5966 16.1579 11.4152 15.686 13.0519 14.7411L16.0071 13.0352C16.8252 12.5633 17.2343 12.327 17.4589 11.9378C17.6836 11.5492 17.6836 11.0768 17.6836 10.1319V8.30187C17.6832 8.04418 17.5459 7.80587 17.3228 7.67701C17.0997 7.54817 16.8246 7.54764 16.601 7.67597L10.5336 11.1679C10.1256 11.4026 9.92189 11.52 9.69772 11.52C9.47407 11.52 9.27032 11.4031 8.86231 11.1685L4.757 8.80888C4.55064 8.69051 4.44798 8.6308 4.3647 8.62033C4.17614 8.59623 3.99491 8.70151 3.92316 8.8775C3.89173 8.95501 3.89225 9.07391 3.89383 9.31223C3.89435 9.48664 3.89488 9.57411 3.91164 9.65477C3.9483 9.83442 4.04258 9.99732 4.18033 10.1178C4.24214 10.1723 4.31808 10.2157 4.46945 10.3032L8.85969 12.8403C9.26875 13.0771 9.47354 13.1949 9.69772 13.1949C9.92295 13.1949 10.1272 13.0771 10.5363 12.8409L15.9174 9.73491C16.0574 9.65425 16.127 9.61444 16.1794 9.64429C16.2318 9.67467 16.2318 9.75533 16.2318 9.91666V10.7458C16.2318 10.982 16.2318 11.0999 16.1757 11.1973C16.1196 11.2947 16.0175 11.3533 15.8128 11.4717L11.3754 14.0329C10.5567 14.5054 10.1476 14.7416 9.69824 14.7411C9.24885 14.7411 8.83926 14.5044 8.02165 14.0314L3.87131 11.631L3.84198 11.6142C2.97252 11.1045 2.4367 10.1749 2.43094 9.16714V8.37101C2.43094 7.81424 2.72687 7.29991 3.20822 7.02021C3.63456 6.77299 4.16043 6.77247 4.58678 7.01916L8.02376 9.00582Z" fill="currentColor"/>
</svg>
