<svg width="18" height="18" viewBox="0 0 18 18" fill="none" xmlns="http://www.w3.org/2000/svg">
<path d="M17.7306 11.1772C16.5284 15.9986 11.6446 18.9329 6.82201 17.7306C2.00144 16.5285 -0.933157 11.6449 0.269595 6.82378C1.47122 2.0018 6.35509 -0.932729 11.1762 0.269321C15.9985 1.47137 18.9328 6.35551 17.7306 11.1772Z" fill="#F7931A"/>
<path d="M12.968 7.71754C13.1472 6.51999 12.2353 5.87622 10.9883 5.44675L11.3928 3.82452L10.4053 3.57843L10.0115 5.15791C9.75184 5.09322 9.48518 5.0322 9.22022 4.97173L9.61682 3.38183L8.62981 3.13574L8.22505 4.75741C8.01015 4.70847 7.79919 4.66011 7.59442 4.6092L7.59555 4.60414L6.23359 4.2641L5.97088 5.31878C5.97088 5.31878 6.70361 5.48669 6.68814 5.49709C7.08812 5.59694 7.16041 5.86159 7.14831 6.0714L6.68758 7.91948C6.71514 7.92651 6.75087 7.93663 6.79025 7.95238C6.75734 7.94423 6.72218 7.93522 6.68589 7.92651L6.04007 10.5154C5.99113 10.6369 5.86709 10.8191 5.5875 10.7499C5.59734 10.7643 4.86967 10.5708 4.86967 10.5708L4.37939 11.7011L5.66456 12.0215C5.90365 12.0814 6.13795 12.1441 6.3686 12.2031L5.95991 13.8439L6.94636 14.09L7.35112 12.4667C7.62058 12.5398 7.88217 12.6073 8.13814 12.6709L7.73479 14.2866L8.72236 14.5327L9.13106 12.895C10.8151 13.2137 12.0814 13.0851 12.6144 11.5622C13.0439 10.336 12.593 9.62862 11.707 9.16737C12.3523 9.01859 12.8383 8.59419 12.968 7.71754ZM10.7116 10.8813C10.4064 12.1075 8.3415 11.4446 7.67205 11.2784L8.21437 9.10465C8.88381 9.27171 11.0305 9.60246 10.7116 10.8813ZM11.017 7.69982C10.7386 8.81525 9.01995 8.24853 8.46245 8.1096L8.95413 6.13806C9.51163 6.277 11.307 6.5363 11.017 7.69982Z" fill="white"/>
</svg>
