<svg width="18" height="18" viewBox="0 0 18 18" fill="none" xmlns="http://www.w3.org/2000/svg">
<circle cx="9" cy="9" r="9" fill="black"/>
<path d="M9 0C13.9624 0 18 4.03763 18 9C18 13.9624 13.9624 18 9 18C4.03763 18 0 13.9624 0 9C0 4.03763 4.03763 0 9 0ZM9.24121 3.12109C8.78906 3.00862 8.33069 3.28035 8.21582 3.73242L8.03711 4.44141L7.32812 4.2627C6.87591 4.15026 6.41845 4.42278 6.30371 4.875C6.18917 5.32705 6.46308 5.78455 6.91504 5.89941L7.62402 6.07812L6.40234 10.9346L5.69336 10.7559C5.24121 10.6447 4.78367 10.9171 4.66895 11.3682C4.55424 11.8202 4.82835 12.2776 5.28027 12.3926L5.98926 12.5723L5.81055 13.2803C5.6958 13.7325 5.9706 14.1909 6.42285 14.3057C6.49252 14.3225 6.56134 14.3301 6.62988 14.3301C7.00664 14.33 7.35052 14.0748 7.44727 13.6924L7.62598 12.9834L8.2793 13.1475L8.09961 13.8564C7.98486 14.3087 8.25966 14.7671 8.71191 14.8818C8.78165 14.8987 8.85034 14.9062 8.91895 14.9062C9.2958 14.9062 9.64053 14.651 9.7373 14.2686L9.91699 13.5527C10.1127 13.5977 10.3111 13.626 10.5068 13.626C10.9734 13.6259 11.4333 13.5001 11.8438 13.2539C12.4433 12.8951 12.868 12.3246 13.0391 11.6475C13.2404 10.8477 13.0386 10.0465 12.5752 9.43457C12.9092 9.12641 13.1649 8.72804 13.2842 8.25684L13.2852 8.25781C13.572 7.11378 12.987 5.95281 11.9521 5.47461L12.1426 4.7207C12.2573 4.26959 11.9825 3.80993 11.5303 3.69629C11.0804 3.58269 10.6206 3.8565 10.5068 4.30859L10.3271 5.01855L9.67383 4.85449L9.85254 4.14551C9.96721 3.69345 9.69313 3.23606 9.24121 3.12109ZM10.7285 10.1084V10.1094C11.2257 10.2331 11.5281 10.7393 11.4033 11.2354C11.3426 11.4761 11.1911 11.6785 10.9785 11.8057C10.7659 11.9327 10.5172 11.9699 10.2754 11.9092L8.03809 11.3467L8.49121 9.5459L10.7285 10.1084ZM11.1162 6.95605C11.5077 7.05507 11.7463 7.45324 11.6484 7.84473C11.5495 8.23614 11.1478 8.47818 10.7598 8.37598L10.7588 8.375L8.90332 7.90723L9.26074 6.48926L11.1162 6.95605Z" fill="url(#paint0_linear_49_19685)"/>
<defs>
<linearGradient id="paint0_linear_49_19685" x1="12" y1="0" x2="4.125" y2="16.5" gradientUnits="userSpaceOnUse">
<stop stop-color="#B283FF"/>
<stop offset="0.360034" stop-color="#FD83FF"/>
<stop offset="0.777213" stop-color="#FFBF83"/>
<stop offset="1" stop-color="#FFEB83"/>
</linearGradient>
</defs>
</svg>
