<svg width="18" height="18" viewBox="0 0 18 18" fill="none" xmlns="http://www.w3.org/2000/svg">
<path d="M12.25 1H6.25C4.733 1 3.5 2.233 3.5 3.75V13.25C3.5 13.309 3.514 13.364 3.517 13.422L9.439 7.5H7.239C6.825 7.5 6.489 7.164 6.489 6.75C6.489 6.336 6.825 6 7.239 6H11.249C11.663 6 11.999 6.336 11.999 6.75V10.76C11.999 11.174 11.663 11.51 11.249 11.51C10.835 11.51 10.499 11.174 10.499 10.76V8.56L4.107 14.953C4.611 15.586 5.379 16 6.249 16H12.249C13.766 16 14.999 14.767 14.999 13.25V3.75C14.999 2.233 13.766 1 12.249 1H12.25Z" fill="currentColor"/>
<path d="M3.51702 13.422L1.21902 15.72C0.926018 16.013 0.926018 16.488 1.21902 16.781C1.36502 16.927 1.55702 17.001 1.74902 17.001C1.94102 17.001 2.13302 16.928 2.27902 16.781L4.10602 14.954C3.76602 14.527 3.55202 14.001 3.51602 13.423L3.51702 13.422Z" fill="currentColor"/>
</svg>
