<svg width="18" height="18" viewBox="0 0 18 18" fill="none" xmlns="http://www.w3.org/2000/svg">
<path d="M10.3 2.5H4.7C3.48497 2.5 2.5 3.48497 2.5 4.7V10.3C2.5 11.515 3.48497 12.5 4.7 12.5H10.3C11.515 12.5 12.5 11.515 12.5 10.3V4.7C12.5 3.48497 11.515 2.5 10.3 2.5Z" stroke="currentColor" stroke-width="1.4" stroke-linecap="round"/>
<path d="M13.6667 5H7.44444C6.09441 5 5 6.09441 5 7.44444V13.6667C5 15.0167 6.09441 16.1111 7.44444 16.1111H13.6667C15.0167 16.1111 16.1111 15.0167 16.1111 13.6667V7.44444C16.1111 6.09441 15.0167 5 13.6667 5Z" fill="currentColor"/>
</svg>
