<svg width="14" height="14" viewBox="0 0 14 14" fill="none" xmlns="http://www.w3.org/2000/svg">
<path d="M8.45801 0C8.94101 0 9.33301 0.392 9.33301 0.875C9.33301 1.358 8.94101 1.75 8.45801 1.75H2.625C2.14317 1.75 1.75 2.142 1.75 2.625C1.75 3.108 2.14317 3.5 2.625 3.5H11.958C13.0838 3.5 14 4.41616 14 5.54199V10.792C13.9998 11.9177 13.0837 12.833 11.958 12.833H3.20801C1.43832 12.8328 0 11.3947 0 9.625V2.625C9.70197e-08 1.17717 1.17833 9.70034e-08 2.625 0H8.45801ZM9.33301 7C8.68916 7.00018 8.16699 7.5231 8.16699 8.16699C8.16717 8.81073 8.68927 9.33283 9.33301 9.33301C9.9769 9.33301 10.4998 8.81084 10.5 8.16699C10.5 7.52299 9.97701 7 9.33301 7Z" fill="currentColor"/>
</svg>
