<svg width="18" height="18" viewBox="0 0 18 18" fill="none" xmlns="http://www.w3.org/2000/svg">
<path d="M14.75 6H4.25C3.561 6 3 5.439 3 4.75C3 4.061 3.561 3.5 4.25 3.5C4.664 3.5 5 3.164 5 2.75C5 2.336 4.664 2 4.25 2C2.733 2 1.5 3.233 1.5 4.75V13.25C1.5 14.767 2.733 16 4.25 16H14.75C15.715 16 16.5 15.215 16.5 14.25V7.75C16.5 6.785 15.715 6 14.75 6ZM12.75 12.25C12.061 12.25 11.5 11.689 11.5 11C11.5 10.311 12.061 9.75 12.75 9.75C13.439 9.75 14 10.311 14 11C14 11.689 13.439 12.25 12.75 12.25Z" fill="currentColor"/>
<path d="M6.02998 5.005C5.91898 5.005 5.80698 4.981 5.70098 4.929C5.32898 4.747 5.17498 4.298 5.35698 3.926L6.56398 1.46C6.76698 1.042 7.12298 0.725996 7.56398 0.571996C8.00798 0.418996 8.48098 0.446996 8.90098 0.650996L14.915 3.568C15.288 3.749 15.443 4.197 15.263 4.57C15.082 4.943 14.634 5.098 14.261 4.918L8.24598 2.001C8.16498 1.961 8.09298 1.977 8.05498 1.99C8.01798 2.003 7.95098 2.036 7.91198 2.117L6.70398 4.585C6.57398 4.851 6.30698 5.005 6.02998 5.005Z" fill="currentColor"/>
</svg>
